<svg width="54" height="54" viewBox="0 0 54 54" fill="none" xmlns="http://www.w3.org/2000/svg">
<circle r="27" transform="matrix(-1 0 0 1 27 27)" fill="#FFD965"/>
<path d="M37.0806 19.5207C36.5455 19.5207 36.0529 19.6883 35.6393 19.9677C35.2866 18.9372 34.3197 18.1984 33.1885 18.1984C32.6533 18.1984 32.1607 18.366 31.7472 18.6454C31.3945 17.6148 30.4275 16.876 29.2964 16.876C28.822 16.876 28.3781 17.0064 28.001 17.2299V12.9028C28.001 11.4377 26.8334 10.252 25.4043 10.252C23.9751 10.252 22.8075 11.4377 22.8075 12.9028V28.386L19.2437 26.567C18.7086 26.2938 18.1065 26.151 17.5044 26.151C16.1361 26.151 15.0293 27.2871 15.0293 28.6902C15.0293 29.3668 15.2847 30.0001 15.753 30.4781L24.1393 39.0391C26.0367 40.9699 28.5605 42.0377 31.2424 42.0377C35.8948 42.0377 39.6774 38.1762 39.6774 33.427V22.1716C39.6774 20.7127 38.5098 19.5207 37.0806 19.5207ZM38.376 33.427C38.376 37.4436 35.1711 40.7091 31.2364 40.7091C28.9011 40.7091 26.7057 39.7779 25.0515 38.0955L16.6591 29.5345C16.4341 29.311 16.3125 29.0068 16.3125 28.6777C16.3125 28.0135 16.8416 27.4734 17.4923 27.4734C17.8937 27.4734 18.295 27.5727 18.6538 27.7527L23.1602 30.0497C23.3609 30.1491 23.6041 30.1429 23.7927 30.0187C23.9812 29.9007 24.1028 29.6835 24.1028 29.4538V12.9028C24.1028 12.1703 24.6866 11.5805 25.3982 11.5805C26.1097 11.5805 26.6935 12.1765 26.6935 12.9028V25.4867C26.6935 25.853 26.9854 26.151 27.3442 26.151C27.703 26.151 27.995 25.853 27.995 25.4867V19.5269C27.995 18.7944 28.5788 18.2046 29.2903 18.2046C30.0018 18.2046 30.5856 18.8006 30.5856 19.5269V25.4867C30.5856 25.853 30.8776 26.151 31.2364 26.151C31.5952 26.151 31.8871 25.853 31.8871 25.4867V20.8493C31.8871 20.1167 32.4709 19.5269 33.1824 19.5269C33.894 19.5269 34.4778 20.1229 34.4778 20.8493V25.4867C34.4778 25.853 34.7697 26.151 35.1285 26.151C35.4873 26.151 35.7792 25.853 35.7792 25.4867V22.1716C35.7792 21.439 36.363 20.8493 37.0746 20.8493C37.7861 20.8493 38.3699 21.4452 38.3699 22.1716V33.427H38.376Z" fill="#383737"/>
</svg>
