<svg width="81" height="81" viewBox="0 0 81 81" fill="none" xmlns="http://www.w3.org/2000/svg">
	<g id="Group 66">
		<!-- <circle id="Ellipse 28" r="39.5" transform="matrix(-1 0 0 1 40.5 40.5)" fill="#FFD965" stroke="#FFD965" stroke-width="0.831579" /> -->
		<g id="food-btn-text">
			<path id="&#208;&#190;" d="M40.4998 14.6206C39.7458 14.6206 39.1026 14.503 38.57 14.2678C38.0374 14.0257 37.6327 13.6972 37.3561 13.2822C37.0863 12.8672 36.9514 12.4003 36.9514 11.8815C36.9514 11.3628 37.0863 10.8959 37.3561 10.4808C37.6327 10.0589 38.0374 9.73037 38.57 9.4952C39.1026 9.25311 39.7458 9.13206 40.4998 9.13206C41.2537 9.13206 41.897 9.25311 42.4296 9.4952C42.9622 9.73037 43.3634 10.0589 43.6331 10.4808C43.9098 10.8959 44.0481 11.3628 44.0481 11.8815C44.0481 12.4003 43.9098 12.8672 43.6331 13.2822C43.3634 13.6972 42.9622 14.0257 42.4296 14.2678C41.897 14.503 41.2537 14.6206 40.4998 14.6206ZM40.4998 13.8217C41.0531 13.8217 41.5235 13.7352 41.9108 13.5623C42.3051 13.3894 42.599 13.1577 42.7927 12.8672C42.9933 12.5767 43.0936 12.2481 43.0936 11.8815C43.0936 11.5149 42.9933 11.1864 42.7927 10.8959C42.599 10.5984 42.3051 10.3633 41.9108 10.1903C41.5235 10.0174 41.0531 9.93096 40.4998 9.93096C39.9464 9.93096 39.4726 10.0174 39.0784 10.1903C38.691 10.3633 38.397 10.5984 38.1965 10.8959C38.0028 11.1864 37.9059 11.5149 37.9059 11.8815C37.9059 12.2481 38.0028 12.5767 38.1965 12.8672C38.397 13.1577 38.691 13.3894 39.0784 13.5623C39.4726 13.7352 39.9464 13.8217 40.4998 13.8217Z" fill="black" />
			<path id="&#209;&#130;" d="M51.0531 16.7257L50.1712 16.3604L51.8706 12.2578L49.5029 11.2771L49.8087 10.539L55.4258 12.8657L55.1201 13.6038L52.7524 12.6231L51.0531 16.7257Z" fill="black" />
			<path id="&#208;&#186;" d="M60.5215 19.9006L61.3065 24.5299L60.2648 23.4881L59.5678 19.0496L57.697 20.9204L57.0221 20.2454L60.727 16.5405L61.4019 17.2155L59.6632 18.9542L63.911 19.7245L64.9381 20.7516L60.5215 19.9006Z" fill="black" />
			<path id="&#209;&#128;" d="M61.3964 28.2808L68.1063 25.5015L68.4716 26.3833L67.0182 26.8057L67.0698 26.9303C67.587 26.8957 68.0744 27.042 68.5318 27.3691C68.9892 27.6962 69.3648 28.2145 69.6587 28.9238C69.9022 29.5117 70.004 30.0647 69.9641 30.5829C69.9241 31.101 69.7601 31.5546 69.472 31.9434C69.1838 32.3323 68.7937 32.6286 68.3017 32.8325C67.8096 33.0363 67.3242 33.1026 66.8455 33.0313C66.3732 32.9574 65.9397 32.7514 65.5451 32.4133C65.1505 32.0751 64.8314 31.6121 64.5879 31.0242C64.2941 30.3148 64.1933 29.6828 64.2854 29.128C64.3775 28.5733 64.6187 28.1253 65.0089 27.784L64.9573 27.6593C64.5977 27.8757 64.2972 28.045 64.056 28.1674C63.8237 28.2936 63.5638 28.4162 63.2762 28.5353L61.7617 29.1627L61.3964 28.2808ZM65.1989 30.4117C65.4001 30.8974 65.6475 31.2778 65.9412 31.5529C66.2439 31.8319 66.5652 32.002 66.905 32.0634C67.2539 32.1285 67.5977 32.0909 67.9364 31.9506C68.2815 31.8076 68.5512 31.5911 68.7454 31.301C68.9488 31.0147 69.0556 30.6672 69.0661 30.2586C69.0855 29.8537 68.9947 29.4085 68.7935 28.9228C68.5923 28.4371 68.3404 28.0548 68.0377 27.7759C67.7441 27.5008 67.4228 27.3306 67.0739 27.2655C66.734 27.2042 66.3915 27.2449 66.0465 27.3879C65.7078 27.5282 65.4368 27.7415 65.2335 28.0278C65.0392 28.3179 64.9323 28.6654 64.9128 29.0703C64.9024 29.4789 64.9978 29.926 65.1989 30.4117Z" fill="black" />
			<path id="&#209;&#139;" d="M70.0957 40.0611C70.0957 40.7804 69.9366 41.3199 69.6185 41.6796C69.3072 42.0462 68.868 42.2295 68.3008 42.2295C67.7336 42.2295 67.2909 42.0462 66.9727 41.6796C66.6615 41.3199 66.5059 40.7804 66.5059 40.0611V36.575H71.7454V37.5295H70.0957V40.0611ZM66.5059 43.4745H71.7454V44.4291H66.5059V43.4745ZM67.3048 40.0611C67.3048 40.4484 67.3947 40.7458 67.5745 40.9533C67.7613 41.1678 68.0034 41.275 68.3008 41.275C68.5982 41.275 68.8368 41.1678 69.0167 40.9533C69.2034 40.7458 69.2968 40.4484 69.2968 40.0611V37.4984H67.3048V40.0611Z" fill="black" />
			<path id="&#209;&#130;_2" d="M64.2772 51.0541L64.6425 50.1722L68.7451 51.8715L69.7258 49.5039L70.4639 49.8096L68.1372 55.4268L67.3991 55.121L68.3798 52.7534L64.2772 51.0541Z" fill="black" />
			<path id="&#209;&#140;" d="M60.5993 62.2561C60.0907 62.7648 59.5967 63.0338 59.1174 63.0631C58.6381 63.1022 58.1979 62.9213 57.7968 62.5202C57.3958 62.1191 57.2123 61.6765 57.2466 61.1923C57.2808 60.7179 57.5523 60.2263 58.0609 59.7177L60.6727 57.1059L64.3776 60.8108L63.7027 61.4858L62.5362 60.3193L60.5993 62.2561ZM58.6258 60.2826C58.3519 60.5565 58.2052 60.8304 58.1856 61.1043C58.1661 61.388 58.2615 61.6349 58.4718 61.8453C58.6821 62.0556 58.9266 62.1485 59.2054 62.124C59.4842 62.1094 59.7605 61.9651 60.0344 61.6912L61.9933 59.7324L60.5847 58.3238L58.6258 60.2826Z" fill="black" />
			<path id="&#208;&#190;_2" d="M40.5012 66.3814C41.2551 66.3814 41.8984 66.4989 42.431 66.7341C42.9636 66.9762 43.3682 67.3048 43.6449 67.7198C43.9147 68.1348 44.0496 68.6017 44.0496 69.1204C44.0496 69.6392 43.9147 70.1061 43.6449 70.5211C43.3682 70.943 42.9636 71.2716 42.431 71.5068C41.8984 71.7488 41.2551 71.8699 40.5012 71.8699C39.7473 71.8699 39.104 71.7488 38.5714 71.5068C38.0388 71.2716 37.6376 70.943 37.3679 70.5211C37.0912 70.1061 36.9528 69.6392 36.9528 69.1204C36.9528 68.6017 37.0912 68.1348 37.3679 67.7198C37.6376 67.3048 38.0388 66.9762 38.5714 66.7341C39.104 66.4989 39.7473 66.3814 40.5012 66.3814ZM40.5012 67.1803C39.9478 67.1803 39.4775 67.2667 39.0902 67.4396C38.6959 67.6126 38.4019 67.8443 38.2083 68.1348C38.0077 68.4253 37.9074 68.7538 37.9074 69.1204C37.9074 69.487 38.0077 69.8156 38.2083 70.1061C38.4019 70.4035 38.6959 70.6387 39.0902 70.8116C39.4775 70.9845 39.9478 71.071 40.5012 71.071C41.0545 71.071 41.5284 70.9845 41.9226 70.8116C42.31 70.6387 42.6039 70.4035 42.8045 70.1061C42.9982 69.8156 43.095 69.487 43.095 69.1204C43.095 68.7538 42.9982 68.4253 42.8045 68.1348C42.6039 67.8443 42.31 67.6126 41.9226 67.4396C41.5284 67.2667 41.0545 67.1803 40.5012 67.1803Z" fill="black" />
			<path id="&#209;&#130;_3" d="M29.9479 64.2762L30.8298 64.6415L29.1304 68.7441L31.498 69.7248L31.1923 70.4629L25.5752 68.1362L25.8809 67.3981L28.2485 68.3788L29.9479 64.2762Z" fill="black" />
			<path id="&#208;&#186;_2" d="M20.4794 61.1033L19.6944 56.474L20.7362 57.5158L21.4332 61.9543L23.304 60.0835L23.9789 60.7585L20.274 64.4634L19.5991 63.7885L21.3378 62.0497L17.09 61.2794L16.0629 60.2523L20.4794 61.1033Z" fill="black" />
			<path id="&#209;&#128;_2" d="M19.6045 52.7231L12.8947 55.5024L12.5294 54.6206L13.9828 54.1982L13.9312 54.0736C13.4139 54.1082 12.9266 53.9619 12.4692 53.6348C12.0118 53.3077 11.6361 52.7894 11.3423 52.0801C11.0988 51.4922 10.997 50.9392 11.0369 50.421C11.0769 49.9029 11.2409 49.4494 11.529 49.0605C11.8171 48.6716 12.2072 48.3753 12.6993 48.1715C13.1913 47.9676 13.6767 47.9013 14.1554 47.9726C14.6278 48.0465 15.0612 48.2525 15.4559 48.5906C15.8505 48.9288 16.1695 49.3918 16.4131 49.9797C16.7069 50.6891 16.8077 51.3211 16.7156 51.8759C16.6234 52.4306 16.3823 52.8786 15.9921 53.22L16.0437 53.3446C16.4033 53.1282 16.7037 52.9589 16.945 52.8365C17.1773 52.7103 17.4372 52.5877 17.7247 52.4686L19.2392 51.8412L19.6045 52.7231ZM15.802 50.5922C15.6009 50.1065 15.3535 49.7261 15.0598 49.451C14.7571 49.1721 14.4358 49.0019 14.096 48.9406C13.7471 48.8754 13.4033 48.913 13.0646 49.0533C12.7195 49.1963 12.4498 49.4128 12.2555 49.7029C12.0522 49.9892 11.9453 50.3367 11.9349 50.7453C11.9154 51.1502 12.0063 51.5955 12.2075 52.0811C12.4086 52.5668 12.6606 52.9491 12.9633 53.228C13.2569 53.5031 13.5782 53.6733 13.9271 53.7384C14.267 53.7998 14.6094 53.759 14.9545 53.616C15.2932 53.4757 15.5642 53.2624 15.7675 52.9761C15.9618 52.686 16.0687 52.3385 16.0881 51.9336C16.0986 51.525 16.0032 51.0779 15.802 50.5922Z" fill="black" />
			<path id="&#209;&#139;_2" d="M10.9053 40.9429C10.9053 40.2235 11.0643 39.684 11.3825 39.3243C11.6938 38.9577 12.133 38.7744 12.7002 38.7744C13.2674 38.7744 13.7101 38.9577 14.0282 39.3243C14.3395 39.684 14.4951 40.2235 14.4951 40.9429V44.429H9.25559V43.4744H10.9053V40.9429ZM14.4951 37.5294H9.25559V36.5748H14.4951V37.5294ZM13.6962 40.9429C13.6962 40.5555 13.6063 40.2581 13.4265 40.0506C13.2397 39.8362 12.9976 39.7289 12.7002 39.7289C12.4028 39.7289 12.1641 39.8362 11.9843 40.0506C11.7975 40.2581 11.7042 40.5555 11.7042 40.9429V43.5056H13.6962V40.9429Z" fill="black" />
			<path id="&#209;&#130;_4" d="M16.7238 29.9498L16.3585 30.8317L12.2559 29.1324L11.2752 31.5L10.5371 31.1943L12.8638 25.5771L13.6019 25.8829L12.6212 28.2505L16.7238 29.9498Z" fill="black" />
			<path id="&#209;&#140;_2" d="M20.4016 18.7459C20.9103 18.2372 21.4043 17.9682 21.8836 17.9388C22.3629 17.8997 22.8031 18.0807 23.2042 18.4817C23.6052 18.8828 23.7886 19.3254 23.7544 19.8096C23.7202 20.2841 23.4487 20.7756 22.9401 21.2843L20.3283 23.896L16.6234 20.1911L17.2983 19.5162L18.4648 20.6827L20.4016 18.7459ZM22.3751 20.7194C22.649 20.4455 22.7958 20.1716 22.8153 19.8977C22.8349 19.614 22.7395 19.367 22.5292 19.1567C22.3189 18.9464 22.0743 18.8535 21.7956 18.8779C21.5168 18.8926 21.2404 19.0369 20.9665 19.3108L19.0077 21.2696L20.4163 22.6782L22.3751 20.7194Z" fill="black" />
		</g>
		<g id="food-btn-hand">
			<g id="Group">
				<path id="Vector" d="M48.9559 34.0893C48.4379 34.0893 47.9611 34.2516 47.5608 34.522C47.2193 33.5244 46.2833 32.8093 45.1884 32.8093C44.6703 32.8093 44.1935 32.9715 43.7932 33.242C43.4518 32.2444 42.5158 31.5293 41.4208 31.5293C40.9616 31.5293 40.5319 31.6555 40.1669 31.8718V27.6832C40.1669 26.265 39.0367 25.1172 37.6533 25.1172C36.2699 25.1172 35.1396 26.265 35.1396 27.6832V42.6708L31.6899 40.91C31.1719 40.6456 30.5891 40.5074 30.0063 40.5074C28.6818 40.5074 27.6104 41.6071 27.6104 42.9653C27.6104 43.6203 27.8576 44.2333 28.3109 44.696L36.4288 52.983C38.2655 54.852 40.7085 55.8856 43.3046 55.8856C47.808 55.8856 51.4696 52.1477 51.4696 47.5505V36.6553C51.4696 35.2431 50.3393 34.0893 48.9559 34.0893ZM50.2098 47.5505C50.2098 51.4386 47.1075 54.5996 43.2987 54.5996C41.0382 54.5996 38.913 53.6982 37.3118 52.0696L29.188 43.7826C28.9702 43.5662 28.8525 43.2718 28.8525 42.9533C28.8525 42.3102 29.3646 41.7874 29.9945 41.7874C30.383 41.7874 30.7716 41.8836 31.1189 42.0578L35.481 44.2813C35.6753 44.3775 35.9108 44.3715 36.0933 44.2513C36.2757 44.1371 36.3935 43.9268 36.3935 43.7044V27.6832C36.3935 26.9741 36.9586 26.4032 37.6474 26.4032C38.3361 26.4032 38.9013 26.9801 38.9013 27.6832V39.8644C38.9013 40.219 39.1838 40.5074 39.5312 40.5074C39.8785 40.5074 40.161 40.219 40.161 39.8644V34.0953C40.161 33.3862 40.7262 32.8153 41.4149 32.8153C42.1037 32.8153 42.6688 33.3922 42.6688 34.0953V39.8644C42.6688 40.219 42.9514 40.5074 43.2987 40.5074C43.646 40.5074 43.9286 40.219 43.9286 39.8644V35.3753C43.9286 34.6662 44.4937 34.0953 45.1825 34.0953C45.8713 34.0953 46.4364 34.6722 46.4364 35.3753V39.8644C46.4364 40.219 46.719 40.5074 47.0663 40.5074C47.4136 40.5074 47.6962 40.219 47.6962 39.8644V36.6553C47.6962 35.9462 48.2613 35.3753 48.9501 35.3753C49.6388 35.3753 50.2039 35.9522 50.2039 36.6553V47.5505H50.2098Z" fill="#383737" />
			</g>
		</g>
	</g>
</svg>
