<svg width="26" height="26" viewBox="0 0 26 26" fill="none" xmlns="http://www.w3.org/2000/svg">
<path fill-rule="evenodd" clip-rule="evenodd" d="M20.8954 8.38051C21.0231 7.98429 20.8954 7.69579 20.3363 7.69579H18.4783C18.305 7.68638 18.1333 7.7319 17.9874 7.82578C17.8415 7.91966 17.729 8.05719 17.6658 8.21875C17.0849 9.58957 16.3134 10.8715 15.3742 12.0266C14.9418 12.459 14.7427 12.6038 14.5085 12.6038C14.3816 12.6038 14.2198 12.459 14.2198 12.0628V8.36387C14.2198 7.89533 14.075 7.67823 13.6778 7.67823H10.7549C10.6955 7.67544 10.6363 7.68446 10.5805 7.70481C10.5247 7.72515 10.4734 7.75645 10.4298 7.79678C10.3862 7.83711 10.3511 7.88566 10.3265 7.93971C10.3018 7.99375 10.2882 8.05215 10.2863 8.11152C10.2863 8.56189 10.9538 8.67055 11.0246 9.93343V12.6766C11.0246 13.2718 10.9171 13.3794 10.6818 13.3794C10.0503 13.3794 8.51688 11.0526 7.59608 8.40061C7.4151 7.8768 7.23506 7.67881 6.76558 7.67881H4.88935C4.34831 7.67881 4.25781 7.93108 4.25781 8.20142C4.74978 10.4634 5.75617 12.5816 7.19891 14.3918C7.80639 15.3718 8.63914 16.1925 9.62788 16.7856C10.6166 17.3787 11.7327 17.727 12.8833 17.8017C14.0736 17.8017 14.2185 17.5311 14.2185 17.0796V15.4024C14.2185 14.8604 14.326 14.7699 14.7052 14.7699C14.9757 14.7699 15.4633 14.9149 16.5644 15.9798C17.8272 17.2424 18.0446 17.8197 18.7473 17.8197H20.6055C21.1475 17.8197 21.4006 17.5493 21.255 17.0262C20.8596 16.2149 20.3297 15.4764 19.6878 14.842C19.2544 14.3362 18.6047 13.7772 18.4067 13.5057C18.1362 13.1447 18.2087 13.0009 18.4067 12.675C19.3787 11.3311 20.2128 9.89274 20.8963 8.38155" fill="white"/>
</svg>
