<svg width="26" height="26" viewBox="0 0 26 26" fill="none" xmlns="http://www.w3.org/2000/svg">
<path fill-rule="evenodd" clip-rule="evenodd" d="M21.2959 8.13886C20.6585 8.42205 19.982 8.60768 19.2893 8.68955C20.0257 8.26031 20.5741 7.57007 20.8259 6.75568C20.1399 7.16347 19.3889 7.45027 18.6057 7.60331C18.0794 7.04096 17.3822 6.6681 16.6222 6.54273C15.8623 6.41736 15.0822 6.54643 14.4032 6.90993C13.7242 7.27343 13.1842 7.85106 12.8671 8.55297C12.5501 9.25489 12.4737 10.0419 12.6499 10.7916C11.26 10.722 9.90029 10.3607 8.65904 9.73141C7.4178 9.10216 6.32276 8.21895 5.445 7.13905C4.99661 7.90818 4.85888 8.81954 5.05997 9.68681C5.26107 10.5541 5.78577 11.3119 6.52687 11.8052C5.97157 11.7897 5.4283 11.6398 4.94351 11.3686V11.4121C4.94399 12.219 5.22337 13.0009 5.73432 13.6254C6.24527 14.2498 6.95638 14.6784 7.74717 14.8386C7.23267 14.9792 6.69273 14.9996 6.16909 14.8982C6.39239 15.5927 6.82711 16.2 7.41246 16.6353C7.99782 17.0706 8.70455 17.3122 9.43389 17.3262C8.71599 17.9082 7.88633 18.3367 6.99618 18.5852C6.10604 18.8338 5.17436 18.8971 4.25879 18.7712C5.85221 19.809 7.71559 20.3553 9.61714 20.3423C10.9256 20.3516 12.2228 20.1008 13.4335 19.6045C14.6441 19.1081 15.7441 18.3762 16.6694 17.4512C17.5948 16.5261 18.3271 15.4263 18.8238 14.2158C19.3205 13.0053 19.5717 11.7081 19.5628 10.3997C19.5628 10.2473 19.5587 10.0969 19.5522 9.94713C20.2374 9.45313 20.8283 8.83992 21.2965 8.1369L21.2959 8.13886Z" fill="white"/>
</svg>
