<svg width="34" height="34" viewBox="0 0 34 34" fill="none" xmlns="http://www.w3.org/2000/svg">
<path fill-rule="evenodd" clip-rule="evenodd" d="M16.7293 27.8543C17.8572 27.8543 18.7716 26.94 18.7716 25.8121V19.5721C18.7716 18.5699 19.584 17.7574 20.5862 17.7574V17.7574C21.4982 17.7574 22.2685 17.0806 22.3858 16.1763L22.4229 15.8902C22.5652 14.7937 21.7113 13.8219 20.6056 13.8219V13.8219C19.5935 13.8219 18.773 13.0014 18.773 11.9893V11.3108C18.773 10.1705 19.0913 9.39447 20.7336 9.39447H20.9762C22 9.39447 22.83 8.56451 22.83 7.54071V7.54071C22.83 6.59199 22.1137 5.78955 21.166 5.7467C20.7028 5.72577 20.2391 5.71634 19.7753 5.71847C19.0839 5.66645 18.3895 5.76639 17.7408 6.01107C17.0921 6.25574 16.5047 6.63927 16.0198 7.13491C15.535 7.63056 15.1644 8.22631 14.9341 8.88029C14.7038 9.53426 14.6193 10.2306 14.6865 10.9207V12.1134C14.6865 13.0569 13.9216 13.8219 12.978 13.8219V13.8219C12.0344 13.8219 11.2695 14.5868 11.2695 15.5303V16.0487C11.2695 16.9924 12.0346 17.7574 12.9783 17.7574V17.7574C13.922 17.7574 14.687 18.5225 14.687 19.4662V25.8121C14.687 26.94 15.6014 27.8543 16.7293 27.8543V27.8543Z" fill="white"/>
</svg>
