<svg width="25" height="31" viewBox="0 0 25 31" fill="none" xmlns="http://www.w3.org/2000/svg">
<path d="M22.1635 9.03965C21.6415 9.03965 21.1611 9.20312 20.7578 9.47559C20.4138 8.47051 19.4707 7.75 18.3676 7.75C17.8456 7.75 17.3652 7.91348 16.9619 8.18594C16.6179 7.18086 15.6748 6.46035 14.5716 6.46035C14.109 6.46035 13.676 6.5875 13.3083 6.80547V2.58535C13.3083 1.15645 12.1695 0 10.7757 0C9.38191 0 8.24313 1.15645 8.24313 2.58535V17.6857L4.76749 15.9117C4.24556 15.6453 3.65837 15.5061 3.07119 15.5061C1.73669 15.5061 0.657227 16.6141 0.657227 17.9824C0.657227 18.6424 0.906334 19.26 1.36303 19.7262L9.54205 28.0756C11.3926 29.9586 13.854 31 16.4696 31C21.0069 31 24.6961 27.234 24.6961 22.6021V11.625C24.6961 10.2021 23.5573 9.03965 22.1635 9.03965ZM23.4268 22.6021C23.4268 26.5195 20.3011 29.7043 16.4637 29.7043C14.1861 29.7043 12.045 28.7961 10.4317 27.1553L2.24677 18.8059C2.02732 18.5879 1.90869 18.2912 1.90869 17.9703C1.90869 17.3225 2.4247 16.7957 3.05933 16.7957C3.45079 16.7957 3.84224 16.8926 4.19218 17.0682L8.58714 19.3084C8.78286 19.4053 9.02011 19.3992 9.20397 19.2781C9.38784 19.1631 9.50646 18.9512 9.50646 18.7271V2.58535C9.50646 1.8709 10.0758 1.2957 10.7698 1.2957C11.4637 1.2957 12.0331 1.87695 12.0331 2.58535V14.8582C12.0331 15.2154 12.3178 15.5061 12.6677 15.5061C13.0177 15.5061 13.3024 15.2154 13.3024 14.8582V9.0457C13.3024 8.33125 13.8718 7.75605 14.5657 7.75605C15.2596 7.75605 15.829 8.3373 15.829 9.0457V14.8582C15.829 15.2154 16.1137 15.5061 16.4637 15.5061C16.8136 15.5061 17.0983 15.2154 17.0983 14.8582V10.3354C17.0983 9.6209 17.6677 9.0457 18.3616 9.0457C19.0556 9.0457 19.625 9.62695 19.625 10.3354V14.8582C19.625 15.2154 19.9096 15.5061 20.2596 15.5061C20.6095 15.5061 20.8942 15.2154 20.8942 14.8582V11.625C20.8942 10.9105 21.4636 10.3354 22.1575 10.3354C22.8515 10.3354 23.4209 10.9166 23.4209 11.625V22.6021H23.4268Z" fill="#7D7D7D"/>
</svg>
