<svg width="34" height="34" viewBox="0 0 34 34" fill="none" xmlns="http://www.w3.org/2000/svg">
<path fill-rule="evenodd" clip-rule="evenodd" d="M12.5783 18.9475C12.5784 18.9475 12.5785 18.9475 12.5786 18.9474L23.6015 11.9937C24.1523 11.6589 24.6572 11.839 24.241 12.2067L15.0208 20.5255C14.8803 20.6523 14.7925 20.8272 14.7749 21.0156C14.6986 21.8313 13.56 21.9583 13.3058 21.1795L12.5778 18.9483C12.5776 18.9479 12.5779 18.9475 12.5783 18.9475ZM26.774 8.59282C26.774 8.59254 26.7737 8.59235 26.7735 8.59245L7.16425 16.1562C5.82643 16.6929 5.83332 17.44 6.92074 17.772C9.9884 18.7305 12.4025 21.1143 13.3996 24.1697L13.6821 25.0356C13.9092 25.6638 13.797 25.913 14.457 25.913C14.6541 25.9105 14.8482 25.8635 15.0245 25.7753C15.2009 25.6871 15.355 25.5602 15.4753 25.4039C16.8819 24.0281 19.081 23.8832 20.6634 25.0525L23.0075 26.7847C23.9422 27.3013 24.6194 27.0336 24.8523 25.9157L28.1923 10.1792C28.5338 8.80973 27.6695 8.18712 26.7746 8.59318C26.7743 8.5933 26.774 8.59311 26.774 8.59282Z" fill="white"/>
</svg>
