<svg width="26" height="27" viewBox="0 0 26 27" fill="none" xmlns="http://www.w3.org/2000/svg">
<path fill-rule="evenodd" clip-rule="evenodd" d="M9.22119 15.0068L17.705 9.65479C18.1289 9.39714 18.5175 9.53573 18.1972 9.81875L10.9327 16.373L10.6506 19.3898L9.22044 15.0068H9.22119ZM20.1467 7.0369L5.05413 12.8585C4.02448 13.2716 4.02979 13.8465 4.86672 14.1021L8.62997 15.2779L10.0706 19.6925C10.2453 20.176 10.159 20.3677 10.6669 20.3677C10.8187 20.3659 10.968 20.3297 11.1038 20.2618C11.2395 20.1939 11.3581 20.0962 11.4507 19.9759C11.5891 19.8406 12.4123 19.0389 13.3324 18.1454L17.2479 21.0387C17.9672 21.4362 18.4884 21.2302 18.6677 20.3698L21.2383 8.25832C21.5012 7.20406 20.8356 6.7249 20.1467 7.03782V7.0369Z" fill="white"/>
</svg>
