<svg width="33" height="33" viewBox="0 0 33 33" fill="none" xmlns="http://www.w3.org/2000/svg">
<g clip-path="url(#clip0_1548_44657)">
<path d="M31.3003 5.98828V13.9819H23.3066" stroke="#383737" stroke-width="2" stroke-linecap="round" stroke-linejoin="round"/>
<path d="M27.9563 20.6429C27.0903 23.0942 25.451 25.1976 23.2856 26.6362C21.1201 28.0748 18.5457 28.7706 15.9504 28.6187C13.3551 28.4669 10.8794 27.4757 8.89643 25.7944C6.91347 24.1132 5.53066 21.833 4.95637 19.2974C4.38208 16.7619 4.64743 14.1084 5.71244 11.7368C6.77744 9.36515 8.58439 7.40392 10.861 6.14862C13.1376 4.89332 15.7606 4.41195 18.3346 4.77705C20.9085 5.14215 23.2942 6.33394 25.1319 8.17283L31.3003 13.9816" stroke="#383737" stroke-width="2" stroke-linecap="round" stroke-linejoin="round"/>
</g>
<defs>
<clipPath id="clip0_1548_44657">
<rect width="31.9746" height="31.9746" fill="white" transform="translate(0.658203 0.658203)"/>
</clipPath>
</defs>
</svg>
