<svg width="34" height="34" viewBox="0 0 34 34" fill="none" xmlns="http://www.w3.org/2000/svg">
<path fill-rule="evenodd" clip-rule="evenodd" d="M27.3476 10.7686C27.5136 10.2538 27.3476 9.87893 26.6212 9.87893H24.2071C23.982 9.8667 23.7588 9.92585 23.5693 10.0478C23.3797 10.1698 23.2335 10.3485 23.1514 10.5584C22.3967 12.3395 21.3943 14.0051 20.1739 15.506C19.6121 16.0678 19.3534 16.2559 19.0491 16.2559C18.8843 16.2559 18.674 16.0678 18.674 15.553V10.747C18.674 10.1382 18.4859 9.85611 17.9698 9.85611H14.1721C14.095 9.85249 14.018 9.8642 13.9455 9.89064C13.873 9.91708 13.8064 9.95774 13.7498 10.0101C13.6931 10.0625 13.6475 10.1256 13.6154 10.1958C13.5834 10.2661 13.5657 10.342 13.5633 10.4191C13.5633 11.0042 14.4306 11.1454 14.5226 12.7863V16.3504C14.5226 17.1238 14.3829 17.2637 14.0771 17.2637C13.2566 17.2637 11.2643 14.2405 10.0679 10.7947C9.83273 10.1141 9.5988 9.85686 8.9888 9.85686H6.55102C5.73304 9.85686 5.80589 10.9425 6.02959 11.7293C6.73751 14.2193 7.93335 16.5484 9.55183 18.5791C10.3411 19.8523 11.4231 20.9186 12.7078 21.6892C13.9924 22.4599 15.4426 22.9125 16.9375 23.0095C18.4841 23.0095 18.6723 22.658 18.6723 22.0713V19.8921C18.6723 19.1879 18.812 19.0703 19.3047 19.0703C19.6562 19.0703 20.2898 19.2587 21.7203 20.6423C23.3612 22.2829 23.6436 23.0329 24.5566 23.0329H26.971C28.0574 23.0329 27.6102 21.4862 26.9873 20.5962C26.629 20.0843 26.2246 19.6048 25.7786 19.164C25.2155 18.5067 24.3714 17.7805 24.1141 17.4278C23.7626 16.9587 23.8568 16.7719 24.1141 16.3483C25.377 14.6023 26.4608 12.7334 27.3488 10.7699" fill="white"/>
</svg>
