<svg width="26" height="26" viewBox="0 0 26 26" fill="none" xmlns="http://www.w3.org/2000/svg">
<path d="M12.084 16.2075C12.3882 16.6142 12.7763 16.9507 13.222 17.1942C13.6676 17.4377 14.1605 17.5825 14.667 17.6187C15.1736 17.655 15.682 17.5819 16.1579 17.4044C16.6337 17.2269 17.0658 16.9492 17.4248 16.59L19.5498 14.465C20.195 13.797 20.5519 12.9024 20.5439 11.9738C20.5358 11.0452 20.1633 10.1569 19.5067 9.50022C18.85 8.84357 17.9617 8.47109 17.0331 8.46302C16.1045 8.45496 15.2099 8.81194 14.5419 9.45708L13.3236 10.6683" stroke="white" stroke-width="2" stroke-linecap="round" stroke-linejoin="round"/>
<path d="M14.9171 14.7914C14.6129 14.3847 14.2248 14.0482 13.7791 13.8047C13.3334 13.5612 12.8406 13.4164 12.334 13.3801C11.8274 13.3439 11.319 13.417 10.8432 13.5944C10.3674 13.7719 9.93526 14.0497 9.57622 14.4089L7.45122 16.5339C6.80608 17.2018 6.4491 18.0965 6.45717 19.0251C6.46523 19.9537 6.83771 20.842 7.49436 21.4987C8.15102 22.1553 9.03931 22.5278 9.96792 22.5358C10.8965 22.5439 11.7912 22.1869 12.4591 21.5418L13.6704 20.3305" stroke="white" stroke-width="2" stroke-linecap="round" stroke-linejoin="round"/>
</svg>
