<svg width="34" height="34" viewBox="0 0 34 34" fill="none" xmlns="http://www.w3.org/2000/svg">
<path d="M12.6302 6C9.40904 6 6.79688 8.73656 6.79688 12.1111V21.8889C6.79688 25.2634 9.40904 28 12.6302 28H21.9635C25.1847 28 27.7969 25.2634 27.7969 21.8889V12.1111C27.7969 8.73656 25.1847 6 21.9635 6H12.6302ZM24.2969 8.44444C24.9409 8.44444 25.4635 8.992 25.4635 9.66667C25.4635 10.3413 24.9409 10.8889 24.2969 10.8889C23.6529 10.8889 23.1302 10.3413 23.1302 9.66667C23.1302 8.992 23.6529 8.44444 24.2969 8.44444ZM17.2969 10.8889C20.518 10.8889 23.1302 13.6254 23.1302 17C23.1302 20.3746 20.518 23.1111 17.2969 23.1111C14.0757 23.1111 11.4635 20.3746 11.4635 17C11.4635 13.6254 14.0757 10.8889 17.2969 10.8889ZM17.2969 13.3333C16.3686 13.3333 15.4784 13.7196 14.822 14.4073C14.1656 15.0949 13.7969 16.0275 13.7969 17C13.7969 17.9725 14.1656 18.9051 14.822 19.5927C15.4784 20.2804 16.3686 20.6667 17.2969 20.6667C18.2251 20.6667 19.1154 20.2804 19.7717 19.5927C20.4281 18.9051 20.7969 17.9725 20.7969 17C20.7969 16.0275 20.4281 15.0949 19.7717 14.4073C19.1154 13.7196 18.2251 13.3333 17.2969 13.3333Z" fill="white"/>
</svg>
