<svg width="34" height="34" viewBox="0 0 34 34" fill="none" xmlns="http://www.w3.org/2000/svg">
<path fill-rule="evenodd" clip-rule="evenodd" d="M28.067 10.603C28.067 10.6031 28.0669 10.6032 28.0668 10.6033C27.8895 10.682 27.7098 10.755 27.5281 10.8221C27.077 10.9886 26.7198 10.2596 26.9757 9.85249C27.1918 9.5088 26.8035 9.16882 26.431 9.33022C26.0011 9.51649 25.5571 9.66918 25.103 9.78675C24.7747 9.87174 24.4358 9.75072 24.1762 9.53264C23.5546 9.0107 22.8018 8.66253 21.9944 8.52934C21.0071 8.36645 19.9936 8.53415 19.1113 9.00645C18.229 9.47874 17.5274 10.2293 17.1155 11.1412C16.5023 12.4986 15.3362 13.9738 13.9051 13.5609C13.1285 13.3369 12.3727 13.0398 11.6479 12.6724C11.0587 12.3737 10.4949 12.031 9.96088 11.6478C8.61398 10.6814 6.5972 10.9995 6.97164 12.6144C7.12282 13.2664 7.41476 13.8708 7.82049 14.3886C8.07783 14.717 7.85503 15.2388 7.46335 15.0951C7.25984 15.0205 7.06147 14.9309 6.86988 14.8269C6.84761 14.8148 6.82031 14.8308 6.82031 14.8561C6.82094 15.9045 7.18395 16.9205 7.84782 17.7318C8.19696 18.1585 8.61804 18.5148 9.08827 18.787C9.40826 18.9723 9.37062 19.482 9.00154 19.4599C8.73519 19.4439 8.51652 19.6956 8.63054 19.9369C8.94814 20.6088 9.42703 21.1955 10.0282 21.6426C10.7991 22.2159 11.1174 23.5987 10.2183 23.9371C9.97866 24.0273 9.7348 24.1071 9.48735 24.1761C8.66059 24.407 8.35351 25.6774 9.17548 25.9248C10.3746 26.2857 11.6272 26.4678 12.8928 26.4591C14.5928 26.4712 16.2783 26.1453 17.8513 25.5004C19.4243 24.8555 20.8535 23.9046 22.0558 22.7027C23.2581 21.5007 24.2096 20.0718 24.855 18.499C25.5003 16.9261 25.8267 15.2408 25.8152 13.5407C25.8152 13.4268 25.8134 13.3137 25.8103 13.2012C25.806 13.046 25.8777 12.8987 26.0011 12.8045C26.8061 12.1902 27.5042 11.4463 28.0664 10.6027C28.0666 10.6023 28.0672 10.6026 28.067 10.603Z" fill="white"/>
</svg>
