<svg width="34" height="34" viewBox="0 0 34 34" fill="none" xmlns="http://www.w3.org/2000/svg">
<path fill-rule="evenodd" clip-rule="evenodd" d="M27.1493 10.7686C27.3154 10.2538 27.1493 9.87893 26.423 9.87893H24.0088C23.7838 9.8667 23.5606 9.92585 23.371 10.0478C23.1815 10.1698 23.0352 10.3485 22.9531 10.5584C22.1984 12.3395 21.196 14.0051 19.9757 15.506C19.4139 16.0678 19.1551 16.2559 18.8509 16.2559C18.6861 16.2559 18.4758 16.0678 18.4758 15.553V10.747C18.4758 10.1382 18.2876 9.85611 17.7716 9.85611H13.9738C13.8967 9.85249 13.8197 9.8642 13.7472 9.89064C13.6747 9.91708 13.6082 9.95774 13.5515 10.0101C13.4949 10.0625 13.4492 10.1256 13.4172 10.1958C13.3852 10.2661 13.3675 10.342 13.3651 10.4191C13.3651 11.0042 14.2323 11.1454 14.3243 12.7863V16.3504C14.3243 17.1238 14.1846 17.2637 13.8789 17.2637C13.0583 17.2637 11.066 14.2405 9.86963 10.7947C9.63449 10.1141 9.40056 9.85686 8.79056 9.85686H6.35278C5.5348 9.85686 5.60765 10.9425 5.83134 11.7293C6.53927 14.2193 7.73511 16.5484 9.35359 18.5791C10.1429 19.8523 11.2249 20.9186 12.5095 21.6892C13.7942 22.4599 15.2443 22.9125 16.7393 23.0095C18.2859 23.0095 18.4741 22.658 18.4741 22.0713V19.8921C18.4741 19.1879 18.6138 19.0703 19.1064 19.0703C19.4579 19.0703 20.0915 19.2587 21.5221 20.6423C23.1629 22.2829 23.4453 23.0329 24.3583 23.0329H26.7728C27.8592 23.0329 27.412 21.4862 26.789 20.5962C26.4307 20.0843 26.0263 19.6048 25.5803 19.164C25.0173 18.5067 24.1731 17.7805 23.9158 17.4278C23.5644 16.9587 23.6586 16.7719 23.9158 16.3483C25.1788 14.6023 26.2625 12.7334 27.1506 10.7699" fill="white"/>
</svg>
