<svg width="34" height="34" viewBox="0 0 34 34" fill="none" xmlns="http://www.w3.org/2000/svg">
<path d="M16.4951 17.336C16.8904 17.8644 17.3946 18.3016 17.9737 18.618C18.5528 18.9343 19.1931 19.1225 19.8513 19.1696C20.5094 19.2167 21.17 19.1218 21.7883 18.8911C22.4065 18.6605 22.9679 18.2996 23.4344 17.833L26.1955 15.072C27.0337 14.2041 27.4975 13.0417 27.487 11.8351C27.4765 10.6286 26.9926 9.47443 26.1394 8.62124C25.2862 7.76805 24.1321 7.2841 22.9255 7.27361C21.719 7.26313 20.5566 7.72695 19.6887 8.56518L18.1057 10.139" stroke="white" stroke-width="2" stroke-linejoin="round"/>
<path d="M20.1757 15.4958C19.7804 14.9674 19.2762 14.5302 18.6971 14.2138C18.118 13.8974 17.4777 13.7093 16.8195 13.6621C16.1614 13.615 15.5008 13.71 14.8825 13.9406C14.2643 14.1712 13.7029 14.5321 13.2363 14.9988L10.4753 17.7598C9.63711 18.6277 9.17328 19.7901 9.18377 20.9966C9.19425 22.2032 9.67821 23.3573 10.5314 24.2105C11.3846 25.0637 12.5387 25.5476 13.7453 25.5581C14.9518 25.5686 16.1142 25.1048 16.9821 24.2666L18.5559 22.6928" stroke="white" stroke-width="2" stroke-linejoin="round"/>
</svg>
