<svg width="35" height="34" viewBox="0 0 35 34" fill="none" xmlns="http://www.w3.org/2000/svg">
<path fill-rule="evenodd" clip-rule="evenodd" d="M14.6702 21.7928C13.5094 21.5299 12.4017 21.0714 11.3948 20.4368C11.2111 20.3212 11.0519 20.1706 10.9264 19.9935C10.8009 19.8164 10.7115 19.6164 10.6633 19.4047C10.6151 19.1931 10.6091 18.9741 10.6456 18.7601C10.682 18.5461 10.7603 18.3415 10.8759 18.1577C10.9914 17.974 11.1421 17.8149 11.3191 17.6894C11.4962 17.5639 11.6963 17.4745 11.9079 17.4263C12.1195 17.3781 12.3386 17.3721 12.5525 17.4086C12.7665 17.445 12.9712 17.5233 13.1549 17.6388C14.2936 18.351 15.6096 18.7287 16.9526 18.7287C18.2957 18.7287 19.6117 18.351 20.7504 17.6388C21.1214 17.4054 21.57 17.329 21.9974 17.4263C22.4248 17.5236 22.796 17.7867 23.0294 18.1577C23.2628 18.5288 23.3393 18.9773 23.242 19.4047C23.1447 19.8321 22.8816 20.2034 22.5105 20.4368C21.5034 21.071 20.3958 21.5295 19.2351 21.7928L22.3888 24.9478C22.6985 25.2579 22.8724 25.6784 22.8721 26.1167C22.8719 26.555 22.6975 26.9752 22.3874 27.2849C22.0773 27.5947 21.6568 27.7686 21.2185 27.7683C20.7802 27.7681 20.36 27.5937 20.0502 27.2836L16.9534 24.184L13.8538 27.2836C13.7008 27.4394 13.5185 27.5632 13.3174 27.6482C13.1163 27.7331 12.9004 27.7773 12.6821 27.7783C12.4637 27.7793 12.2474 27.737 12.0455 27.654C11.8436 27.5709 11.6602 27.4487 11.5059 27.2943C11.3515 27.1399 11.2292 26.9565 11.1462 26.7546C11.0631 26.5527 11.0208 26.3364 11.0218 26.1181C11.0228 25.8998 11.067 25.6838 11.1519 25.4827C11.2369 25.2816 11.3608 25.0993 11.5165 24.9463L14.6702 21.7928ZM16.9519 17.1918C15.5503 17.1928 14.1984 16.6723 13.1592 15.7317C12.12 14.7911 11.4679 13.4976 11.3297 12.1028C11.1915 10.708 11.5771 9.31161 12.4115 8.18536C13.2458 7.05911 14.4693 6.28349 15.8439 6.0094C17.2185 5.73531 18.6459 5.98236 19.8484 6.70246C21.0509 7.42255 21.9426 8.56421 22.3499 9.90536C22.7573 11.2465 22.6512 12.6912 22.0523 13.9585C21.4533 15.2257 20.4045 16.2249 19.1096 16.7616C18.426 17.0464 17.6925 17.1926 16.9519 17.1918ZM16.9519 9.21737C16.3714 9.21676 15.8114 9.43211 15.3809 9.82152C14.9504 10.2109 14.6802 10.7465 14.6227 11.3242C14.5653 11.9018 14.7248 12.4802 15.0702 12.9468C15.4157 13.4133 15.9223 13.7347 16.4915 13.8484C17.0608 13.9621 17.652 13.8599 18.1501 13.5619C18.6482 13.2638 19.0176 12.7911 19.1865 12.2357C19.3554 11.6803 19.3116 11.0819 19.0637 10.557C18.8158 10.0321 18.3815 9.61815 17.8453 9.39575C17.5622 9.27773 17.2586 9.21712 16.9519 9.21737Z" fill="white"/>
</svg>
