<svg width="317" height="34" viewBox="0 0 317 34" fill="none" xmlns="http://www.w3.org/2000/svg">
<path d="M10.8799 11.2738V24.3576H13.1948V9.58555H9.17531L2.31487 22.6905V9.58555H0V24.3576H4.01946L10.8799 11.2738Z" fill="#383737"/>
<path d="M25.0739 18.1322V24.3576H27.3888V9.58555H25.0739V16.0219H17.0771V9.58555H14.7622V24.3576H17.0771V18.1322H25.0739Z" fill="#383737"/>
<path d="M37.3036 24.3576V22.6694H38.5031C41.6177 22.6694 43.9746 20.1159 43.9746 16.9716C44.0378 13.975 41.5546 11.2105 38.5031 11.2738H37.3036V9.58555H34.9887V11.2738H33.7892C30.7378 11.2105 28.2546 13.975 28.3177 16.9716C28.3177 20.1159 30.6747 22.6694 33.7892 22.6694H34.9887V24.3576H37.3036ZM34.0838 20.4536C32.0425 20.4536 30.6326 18.8919 30.6326 16.9716C30.6326 15.0512 32.0425 13.4896 34.0838 13.4896H34.9887V20.4536H34.0838ZM38.2085 13.4896C40.2498 13.4896 41.6598 15.0512 41.6598 16.9716C41.6598 18.8919 40.2498 20.4536 38.2085 20.4536H37.3036V13.4896H38.2085Z" fill="#383737"/>
<path d="M51.9531 9.37452C47.7442 9.29011 44.1877 12.8354 44.2719 16.9716C44.1877 21.1288 47.7442 24.653 51.9531 24.5686C56.1619 24.653 59.7184 21.1288 59.6342 16.9716C59.7184 12.8354 56.1619 9.29011 51.9531 9.37452ZM51.9531 22.3528C49.0489 22.3528 46.692 20.2003 46.692 16.9927C46.692 13.8272 48.9858 11.5903 51.9531 11.5903C54.9203 11.5903 57.2141 13.785 57.2141 16.9716C57.2141 20.1581 54.8572 22.3528 51.9531 22.3528Z" fill="#383737"/>
<path d="M71.5127 11.8014V9.58555H60.5697V24.3576H62.8846V11.8014H71.5127Z" fill="#383737"/>
<path d="M74.4614 18.4488H78.9859C82.0373 18.4488 83.7209 16.3174 83.7209 14.0172C83.7209 11.6325 82.0584 9.58555 78.9859 9.58555H72.1465V24.3576H74.4614V18.4488ZM74.4614 16.233V11.8014H78.7755C80.2696 11.8014 81.3008 12.6666 81.3008 14.0172C81.3008 15.3678 80.2696 16.233 78.7755 16.233H74.4614Z" fill="#383737"/>
<path d="M81.4537 24.3576H84.0632L85.4731 20.7701H92.7545L94.1644 24.3576H96.7739L90.7132 9.58555H87.5144L81.4537 24.3576ZM86.2939 18.6598L89.1138 11.5059L91.9337 18.6598H86.2939Z" fill="#383737"/>
<path d="M104.374 24.3576V22.6694H105.574C108.688 22.6694 111.045 20.1159 111.045 16.9716C111.108 13.975 108.625 11.2105 105.574 11.2738H104.374V9.58555H102.059V11.2738H100.86C97.8082 11.2105 95.325 13.975 95.3881 16.9716C95.3881 20.1159 97.7451 22.6694 100.86 22.6694H102.059V24.3576H104.374ZM101.154 20.4536C99.113 20.4536 97.703 18.8919 97.703 16.9716C97.703 15.0512 99.113 13.4896 101.154 13.4896H102.059V20.4536H101.154ZM105.279 13.4896C107.32 13.4896 108.73 15.0512 108.73 16.9716C108.73 18.8919 107.32 20.4536 105.279 20.4536H104.374V13.4896H105.279Z" fill="#383737"/>
<path d="M122.854 11.2738V24.3576H125.168V9.58555H121.149L114.289 22.6905V9.58555H111.974V24.3576H115.993L122.854 11.2738Z" fill="#383737"/>
<path d="M126.736 24.3576H129.051V17.668L135.469 24.3576H138.731L131.26 16.655L138.31 9.58555H135.259L129.051 15.832V9.58555H126.736V24.3576Z" fill="#383737"/>
<path d="M137.81 24.3576H140.42L141.83 20.7701H149.111L150.521 24.3576H153.131L147.07 9.58555H143.871L137.81 24.3576ZM142.651 18.6598L145.471 11.5059L148.29 18.6598H142.651Z" fill="#383737"/>
<g clip-path="url(#clip0_1644_46357)">
<path d="M203.04 20.2991C203.011 20.1822 202.981 20.0652 202.952 19.9482C202.952 19.919 202.923 19.8897 202.923 19.8312C202.806 19.1585 202.777 18.5735 202.806 18.0178C202.894 14.9468 204.965 12.3437 207.737 11.437C205.374 7.0498 201.844 0.615234 201.844 0.615234C201.844 0.615234 195.22 12.8117 194.112 15.0345C193.003 17.2574 191.865 19.1585 191.865 22.2588C191.865 22.4342 191.836 22.6097 191.836 22.7853C191.836 28.3423 196.329 32.8758 201.902 32.8758C204.353 32.8758 206.629 31.9983 208.35 30.5067L207.883 29.8632C205.286 26.178 203.653 22.9607 203.04 20.2991Z" fill="#383737"/>
<path d="M214.914 17.9274C214.856 15.2366 212.697 13.0723 209.983 13.0723C209.546 13.0723 209.108 13.1308 208.729 13.2477C206.657 13.8035 205.111 15.6753 205.082 17.9274C205.052 18.2492 205.052 18.6878 205.169 19.2143C205.169 19.2436 205.169 19.2436 205.169 19.2728C205.198 19.3898 205.198 19.4775 205.228 19.5653C206.044 23.1921 208.991 27.4622 209.954 28.8076L209.983 28.8369C210.917 27.55 213.922 23.2213 214.739 19.5361C214.768 19.4483 214.797 19.3313 214.797 19.2436C214.797 19.2143 214.797 19.2143 214.797 19.1851C214.943 18.6586 214.973 18.2492 214.914 17.9274ZM210.012 19.9748C208.962 19.9748 208.116 19.1266 208.116 18.0736C208.116 17.0207 208.962 16.1725 210.012 16.1725C211.063 16.1725 211.909 17.0207 211.909 18.0736C211.909 19.1266 211.063 19.9748 210.012 19.9748Z" fill="#383737"/>
<path d="M221.83 24.419C221.83 20.7045 221.83 17.0485 221.83 13.3632C221.918 13.3632 221.976 13.334 222.034 13.334C223.551 13.334 225.069 13.334 226.586 13.3632C227.549 13.3925 228.482 13.6264 229.329 14.1237C230.466 14.7964 231.196 15.7908 231.517 17.0777C231.925 18.6571 231.867 20.2072 231.138 21.6989C230.496 23.0151 229.416 23.8047 228.045 24.1264C227.374 24.302 226.673 24.3605 225.973 24.3897C224.602 24.4482 223.231 24.419 221.83 24.419ZM224.193 22.3423C225.127 22.3131 226.032 22.3423 226.936 22.2254C228.161 22.0499 228.978 21.2016 229.241 19.9733C229.387 19.2421 229.387 18.4816 229.241 17.7504C228.978 16.5512 228.191 15.7031 226.994 15.5276C226.177 15.4105 225.331 15.4399 224.514 15.3813C224.252 15.352 224.193 15.4691 224.193 15.7031C224.193 17.8089 224.193 19.9148 224.193 22.0207C224.164 22.1084 224.193 22.1961 224.193 22.3423Z" fill="#383737"/>
<path d="M274.902 16.1703C274.144 15.7023 273.415 15.4099 272.627 15.2929C271.898 15.1759 271.168 15.1467 270.439 15.3514C270.03 15.4684 269.739 15.7023 269.68 16.1118C269.622 16.5213 269.826 16.843 270.147 17.0185C270.73 17.311 271.343 17.545 271.956 17.779C272.715 18.1007 273.531 18.3639 274.232 18.7734C275.807 19.7094 276.215 21.7275 275.223 23.1899C274.699 23.9796 273.882 24.3305 272.977 24.506C271.11 24.8278 269.301 24.623 267.579 23.804C267.375 23.7163 267.288 23.5993 267.288 23.3654C267.317 22.8389 267.288 22.2831 267.288 21.7567C267.288 21.6689 267.288 21.5812 267.317 21.4934C267.9 21.7567 268.455 22.0199 269.038 22.2246C270.089 22.5757 271.197 22.6634 272.306 22.4587C272.423 22.4294 272.51 22.4001 272.627 22.3709C273.415 22.0784 273.561 21.2302 272.89 20.7038C272.51 20.4113 272.073 20.2358 271.635 20.0603C270.818 19.7386 270.001 19.4461 269.184 19.0951C268.455 18.7734 267.842 18.2762 267.492 17.5157C266.762 15.9071 267.492 14.0937 269.126 13.4795C271.022 12.7775 272.89 13.0408 274.699 13.8597C274.757 13.889 274.845 14.006 274.845 14.0645C274.902 14.7664 274.902 15.4391 274.902 16.1703Z" fill="#383737"/>
<path d="M310.527 24.3917C309.798 24.3917 309.068 24.3917 308.339 24.3917C308.339 20.7065 308.339 17.0505 308.339 13.3652C309.039 13.3652 309.768 13.3652 310.497 13.3652C310.497 14.7107 310.497 16.0561 310.497 17.4307C310.906 17.1967 311.257 16.9627 311.635 16.8165C313.357 16.1731 315.662 16.9043 315.808 19.3026C315.925 20.9698 315.837 22.6661 315.837 24.3917C315.137 24.3917 314.437 24.3917 313.678 24.3917C313.678 24.2747 313.649 24.1578 313.649 24.0408C313.649 22.7246 313.649 21.3792 313.649 20.063C313.649 19.4781 313.533 18.9516 312.948 18.6591C312.131 18.2497 311.111 18.6006 310.556 19.3903C310.497 19.4781 310.497 19.6243 310.497 19.7413C310.497 21.1745 310.497 22.6076 310.497 24.0115C310.527 24.1578 310.527 24.2747 310.527 24.3917Z" fill="#383737"/>
<path d="M293.488 22.9268C293.488 23.3364 293.488 23.7459 293.488 24.1845C293.488 24.243 293.429 24.36 293.371 24.3892C292.612 24.6233 291.854 24.711 291.154 24.3015C290.95 24.1845 290.774 23.9798 290.599 23.8336C290.133 24.0383 289.695 24.3308 289.199 24.4771C288.265 24.7695 287.302 24.7988 286.398 24.3308C285.61 23.9213 285.201 23.2194 285.201 22.3127C285.201 21.3767 285.61 20.704 286.456 20.2653C287.39 19.7681 288.411 19.7681 289.432 19.8558C289.724 19.8851 290.016 19.9436 290.308 19.9728C290.453 19.3294 290.103 18.7737 289.432 18.569C288.819 18.3934 288.207 18.4227 287.594 18.5396C287.04 18.6567 286.486 18.8029 285.902 18.9492C285.902 18.3642 285.902 17.7792 285.902 17.1943C285.902 17.1358 285.96 17.0772 286.018 17.0772C287.449 16.6386 288.878 16.4046 290.337 16.7848C291.737 17.1651 292.496 18.1302 292.554 19.6219C292.584 20.4408 292.584 21.2597 292.584 22.0787C292.525 22.9268 292.612 23.0147 293.488 22.9268ZM290.337 21.2597C289.548 21.1135 288.79 20.9673 288.032 21.289C287.565 21.4938 287.39 21.8155 287.449 22.2835C287.477 22.6344 287.798 22.9562 288.236 23.0147C288.936 23.1316 289.578 23.0147 290.162 22.5759C290.249 22.5174 290.337 22.4004 290.337 22.2835C290.337 21.9617 290.337 21.64 290.337 21.2597Z" fill="#383737"/>
<path d="M255.674 24.6515C254.186 24.593 252.873 24.125 252.057 22.8088C250.802 20.7908 251.385 17.0763 255.062 16.6375C256.054 16.5205 257.017 16.6375 257.921 17.1348C259.351 17.9244 260.051 19.4161 259.847 21.1709C259.613 23.0721 258.213 24.4175 256.229 24.593C256.054 24.6222 255.879 24.6222 255.674 24.6515ZM253.749 20.6445C253.72 20.6445 253.895 21.5512 254.128 21.9021C254.595 22.6626 255.383 22.7796 256.2 22.6333C256.929 22.4871 257.483 21.9314 257.6 21.1709C257.746 20.2935 257.658 19.4746 256.842 18.9189C256.17 18.4509 255.441 18.4509 254.712 18.8019C253.982 19.1528 253.749 19.8548 253.749 20.6445Z" fill="#383737"/>
<path d="M237.031 24.6535C235.514 24.595 234.289 24.1855 233.472 22.9864C232.567 21.6702 232.509 20.237 233.151 18.8331C233.764 17.4585 234.901 16.815 236.36 16.6395C237.761 16.4641 239.074 16.7565 240.066 17.7802C241.204 18.9501 241.408 20.4125 240.941 21.9334C240.503 23.425 239.395 24.2441 237.877 24.5365C237.557 24.595 237.236 24.6242 237.031 24.6535ZM236.944 18.5699C235.777 18.5699 235.018 19.3889 235.018 20.6173C235.018 21.8749 235.777 22.6646 236.944 22.6646C238.14 22.6646 238.928 21.8457 238.928 20.5881C238.928 19.3889 238.14 18.5407 236.944 18.5699Z" fill="#383737"/>
<path d="M284.24 21.3478C282.431 21.3478 280.651 21.3478 278.871 21.3478C279.046 22.079 279.513 22.4592 280.155 22.6932C281.263 23.0735 282.372 22.9564 283.481 22.6055C283.569 22.5762 283.656 22.547 283.772 22.5177C283.802 22.5177 283.802 22.5177 283.86 22.5177C283.86 23.015 283.86 23.5121 283.86 24.0094C283.86 24.2726 283.626 24.2726 283.451 24.3311C282.431 24.6528 281.38 24.7113 280.33 24.6236C279.572 24.5359 278.871 24.3018 278.258 23.8924C277.208 23.1612 276.712 22.1082 276.654 20.8506C276.595 19.3004 277.121 17.9843 278.521 17.1946C279.863 16.4341 281.293 16.4048 282.664 17.1653C283.86 17.8088 284.298 18.9202 284.327 20.2072C284.327 20.5288 284.268 20.9091 284.24 21.3478ZM278.871 19.8854C280.009 19.8854 281.118 19.8854 282.226 19.8854C282.343 19.0372 281.759 18.3645 280.884 18.306C279.717 18.2183 278.9 18.8617 278.871 19.8854Z" fill="#383737"/>
<path d="M244.793 24.3931C244.034 24.3931 243.334 24.3931 242.604 24.3931C242.604 21.8777 242.604 19.3624 242.604 16.8471C243.246 16.8471 243.859 16.8471 244.501 16.8471C244.501 17.1396 244.501 17.4028 244.501 17.7245C244.88 17.4613 245.172 17.1981 245.522 16.9933C247.01 16.1452 249.053 16.6716 249.782 18.1632C250.015 18.6312 250.103 19.1577 250.132 19.6841C250.191 21.2051 250.161 22.726 250.161 24.2469C250.161 24.2761 250.161 24.3346 250.132 24.3931C249.403 24.3931 248.702 24.3931 247.944 24.3931C247.944 24.2761 247.944 24.1299 247.944 24.0128C247.944 22.6675 247.944 21.2928 247.944 19.9474C247.944 19.3624 247.74 18.8652 247.156 18.6312C246.398 18.3095 245.26 18.6897 244.851 19.3917C244.793 19.4794 244.793 19.6256 244.793 19.7427C244.793 21.1758 244.793 22.5797 244.793 24.0128C244.793 24.1299 244.793 24.2469 244.793 24.3931Z" fill="#383737"/>
<path d="M306.793 18.9498C306.21 18.8036 305.684 18.6281 305.13 18.5404C304.751 18.4819 304.371 18.5111 303.992 18.5988C302.912 18.8328 302.358 19.6517 302.446 20.8217C302.504 21.8453 303.233 22.5765 304.255 22.6935C305.072 22.7812 305.859 22.6643 306.589 22.3426C306.647 22.3133 306.706 22.2841 306.764 22.2548C306.793 22.2548 306.793 22.2548 306.852 22.2548C306.852 22.8398 306.852 23.3955 306.852 23.9804C306.852 24.0389 306.764 24.1559 306.706 24.1559C305.305 24.7409 302.971 24.9164 301.453 23.688C300.491 22.8983 300.112 21.8161 300.141 20.5877C300.17 19.0668 300.754 17.8384 302.125 17.1072C303.584 16.3468 305.072 16.3467 306.589 17.0195C306.676 17.0487 306.764 17.1949 306.764 17.2827C306.793 17.8676 306.793 18.4234 306.793 18.9498Z" fill="#383737"/>
<path d="M296.757 24.3876C296.028 24.3876 295.328 24.3876 294.598 24.3876C294.598 21.8722 294.598 19.3861 294.598 16.8415C295.24 16.8415 295.853 16.8415 296.523 16.8415C296.523 17.1633 296.523 17.485 296.523 17.8945C297.34 16.8708 298.362 16.5491 299.558 16.6368C299.558 17.3388 299.558 18.0115 299.558 18.6842C299.062 18.7427 298.566 18.7719 298.099 18.8889C297.807 18.9766 297.515 19.1522 297.253 19.3569C296.903 19.5908 296.757 19.9419 296.757 20.4098C296.786 21.609 296.757 22.8082 296.757 24.0365C296.757 24.1243 296.757 24.2706 296.757 24.3876Z" fill="#383737"/>
<path d="M261.335 16.8474C261.977 16.8474 262.59 16.8474 263.261 16.8474C263.261 17.1984 263.261 17.5201 263.261 17.9296C264.078 16.9059 265.099 16.5842 266.295 16.672C266.295 17.3739 266.295 18.0466 266.295 18.7486C266.062 18.7486 265.828 18.7486 265.595 18.7486C264.836 18.8071 264.165 19.041 263.698 19.6553C263.582 19.8015 263.494 20.0354 263.494 20.211C263.465 21.4686 263.494 22.7263 263.494 23.984C263.494 24.1009 263.494 24.2179 263.494 24.3641C262.765 24.3641 262.064 24.3641 261.335 24.3641C261.335 21.9073 261.335 19.392 261.335 16.8474Z" fill="#383737"/>
</g>
<path d="M176.022 11.7422L164.182 23.5822" stroke="#383737" stroke-width="0.789333" stroke-linecap="square" stroke-linejoin="round"/>
<path d="M164.182 11.7422L176.022 23.5822" stroke="#383737" stroke-width="0.789333" stroke-linecap="square" stroke-linejoin="round"/>
<defs>
<clipPath id="clip0_1644_46357">
<rect width="125.693" height="33.5182" fill="white" transform="translate(191.019)"/>
</clipPath>
</defs>
</svg>
