<svg width="317" height="35" viewBox="0 0 317 35" fill="none" xmlns="http://www.w3.org/2000/svg">
<path d="M11.168 11.7738V24.8576H13.4828V10.0856H9.46339L2.60296 23.1905V10.0856H0.288086V24.8576H4.30754L11.168 11.7738Z" fill="#383737"/>
<path d="M25.362 18.6322V24.8576H27.6769V10.0856H25.362V16.5219H17.3652V10.0856H15.0503V24.8576H17.3652V18.6322H25.362Z" fill="#383737"/>
<path d="M37.5917 24.8576V23.1694H38.7912C41.9058 23.1694 44.2627 20.6159 44.2627 17.4716C44.3259 14.475 41.8426 11.7105 38.7912 11.7738H37.5917V10.0856H35.2768V11.7738H34.0773C31.0259 11.7105 28.5427 14.475 28.6058 17.4716C28.6058 20.6159 30.9627 23.1694 34.0773 23.1694H35.2768V24.8576H37.5917ZM34.3719 20.9536C32.3306 20.9536 30.9207 19.3919 30.9207 17.4716C30.9207 15.5512 32.3306 13.9896 34.3719 13.9896H35.2768V20.9536H34.3719ZM38.4966 13.9896C40.5379 13.9896 41.9479 15.5512 41.9479 17.4716C41.9479 19.3919 40.5379 20.9536 38.4966 20.9536H37.5917V13.9896H38.4966Z" fill="#383737"/>
<path d="M52.2411 9.87452C48.0323 9.79011 44.4758 13.3354 44.56 17.4716C44.4758 21.6288 48.0323 25.153 52.2411 25.0686C56.45 25.153 60.0065 21.6288 59.9223 17.4716C60.0065 13.3354 56.45 9.79011 52.2411 9.87452ZM52.2411 22.8528C49.337 22.8528 46.9801 20.7003 46.9801 17.4927C46.9801 14.3272 49.2739 12.0903 52.2411 12.0903C55.2084 12.0903 57.5022 14.285 57.5022 17.4716C57.5022 20.6581 55.1453 22.8528 52.2411 22.8528Z" fill="#383737"/>
<path d="M71.8008 12.3014V10.0856H60.8578V24.8576H63.1727V12.3014H71.8008Z" fill="#383737"/>
<path d="M74.7495 18.9488H79.274C82.3254 18.9488 84.009 16.8174 84.009 14.5172C84.009 12.1325 82.3465 10.0856 79.274 10.0856H72.4346V24.8576H74.7495V18.9488ZM74.7495 16.733V12.3014H79.0636C80.5577 12.3014 81.5889 13.1666 81.5889 14.5172C81.5889 15.8678 80.5577 16.733 79.0636 16.733H74.7495Z" fill="#383737"/>
<path d="M81.7418 24.8576H84.3513L85.7612 21.2701H93.0425L94.4525 24.8576H97.062L91.0013 10.0856H87.8025L81.7418 24.8576ZM86.5819 19.1598L89.4019 12.0059L92.2218 19.1598H86.5819Z" fill="#383737"/>
<path d="M104.662 24.8576V23.1694H105.862C108.976 23.1694 111.333 20.6159 111.333 17.4716C111.396 14.475 108.913 11.7105 105.862 11.7738H104.662V10.0856H102.347V11.7738H101.148C98.0963 11.7105 95.6131 14.475 95.6762 17.4716C95.6762 20.6159 98.0332 23.1694 101.148 23.1694H102.347V24.8576H104.662ZM101.442 20.9536C99.401 20.9536 97.9911 19.3919 97.9911 17.4716C97.9911 15.5512 99.401 13.9896 101.442 13.9896H102.347V20.9536H101.442ZM105.567 13.9896C107.608 13.9896 109.018 15.5512 109.018 17.4716C109.018 19.3919 107.608 20.9536 105.567 20.9536H104.662V13.9896H105.567Z" fill="#383737"/>
<path d="M123.142 11.7738V24.8576H125.456V10.0856H121.437L114.577 23.1905V10.0856H112.262V24.8576H116.281L123.142 11.7738Z" fill="#383737"/>
<path d="M127.024 24.8576H129.339V18.168L135.757 24.8576H139.019L131.548 17.155L138.598 10.0856H135.547L129.339 16.332V10.0856H127.024V24.8576Z" fill="#383737"/>
<path d="M138.099 24.8576H140.708L142.118 21.2701H149.399L150.809 24.8576H153.419L147.358 10.0856H144.159L138.099 24.8576ZM142.939 19.1598L145.759 12.0059L148.579 19.1598H142.939Z" fill="#383737"/>
<path d="M203.328 20.7991C203.299 20.6822 203.269 20.5652 203.24 20.4482C203.24 20.419 203.211 20.3897 203.211 20.3312C203.094 19.6585 203.065 19.0735 203.094 18.5178C203.182 15.4468 205.254 12.8437 208.025 11.937C205.662 7.5498 202.132 1.11523 202.132 1.11523C202.132 1.11523 195.509 13.3117 194.4 15.5345C193.291 17.7574 192.153 19.6585 192.153 22.7588C192.153 22.9342 192.124 23.1097 192.124 23.2853C192.124 28.8423 196.617 33.3758 202.19 33.3758C204.641 33.3758 206.917 32.4983 208.638 31.0067L208.171 30.3632C205.574 26.678 203.941 23.4607 203.328 20.7991Z" fill="#383737"/>
<path d="M215.202 18.4274C215.144 15.7366 212.985 13.5723 210.271 13.5723C209.834 13.5723 209.396 13.6308 209.017 13.7477C206.945 14.3035 205.399 16.1753 205.37 18.4274C205.341 18.7492 205.341 19.1878 205.457 19.7143C205.457 19.7436 205.457 19.7436 205.457 19.7728C205.486 19.8898 205.486 19.9775 205.516 20.0653C206.333 23.6921 209.279 27.9622 210.242 29.3076L210.271 29.3369C211.205 28.05 214.21 23.7213 215.027 20.0361C215.056 19.9483 215.086 19.8313 215.086 19.7436C215.086 19.7143 215.086 19.7143 215.086 19.6851C215.231 19.1586 215.261 18.7492 215.202 18.4274ZM210.301 20.4748C209.25 20.4748 208.404 19.6266 208.404 18.5736C208.404 17.5207 209.25 16.6725 210.301 16.6725C211.351 16.6725 212.197 17.5207 212.197 18.5736C212.197 19.6266 211.351 20.4748 210.301 20.4748Z" fill="#383737"/>
<path d="M222.118 24.919C222.118 21.2045 222.118 17.5485 222.118 13.8632C222.206 13.8632 222.264 13.834 222.322 13.834C223.84 13.834 225.357 13.834 226.874 13.8632C227.837 13.8925 228.77 14.1264 229.617 14.6237C230.754 15.2964 231.484 16.2908 231.805 17.5777C232.213 19.1571 232.155 20.7072 231.426 22.1989C230.784 23.5151 229.704 24.3047 228.333 24.6264C227.662 24.802 226.962 24.8605 226.261 24.8897C224.89 24.9482 223.519 24.919 222.118 24.919ZM224.482 22.8423C225.415 22.8131 226.32 22.8423 227.224 22.7254C228.45 22.5499 229.267 21.7016 229.529 20.4733C229.675 19.7421 229.675 18.9816 229.529 18.2504C229.267 17.0512 228.479 16.2031 227.282 16.0276C226.465 15.9105 225.619 15.9399 224.802 15.8813C224.54 15.852 224.482 15.9691 224.482 16.2031C224.482 18.3089 224.482 20.4148 224.482 22.5207C224.452 22.6084 224.482 22.6961 224.482 22.8423Z" fill="#383737"/>
<path d="M275.191 16.6703C274.432 16.2023 273.703 15.9099 272.915 15.7929C272.186 15.6759 271.456 15.6467 270.727 15.8514C270.318 15.9684 270.027 16.2023 269.968 16.6118C269.91 17.0213 270.114 17.343 270.435 17.5185C271.019 17.811 271.631 18.045 272.244 18.279C273.003 18.6007 273.82 18.8639 274.52 19.2734C276.096 20.2094 276.504 22.2275 275.511 23.6899C274.987 24.4796 274.17 24.8305 273.265 25.006C271.398 25.3278 269.589 25.123 267.868 24.304C267.663 24.2163 267.576 24.0993 267.576 23.8654C267.605 23.3389 267.576 22.7831 267.576 22.2567C267.576 22.1689 267.576 22.0812 267.605 21.9934C268.188 22.2567 268.743 22.5199 269.326 22.7246C270.377 23.0757 271.485 23.1634 272.594 22.9587C272.711 22.9294 272.798 22.9001 272.915 22.8709C273.703 22.5784 273.849 21.7302 273.178 21.2038C272.798 20.9113 272.361 20.7358 271.923 20.5603C271.106 20.2386 270.289 19.9461 269.472 19.5951C268.743 19.2734 268.13 18.7762 267.78 18.0157C267.051 16.4071 267.78 14.5937 269.414 13.9795C271.31 13.2775 273.178 13.5408 274.987 14.3597C275.045 14.389 275.133 14.506 275.133 14.5645C275.191 15.2664 275.191 15.9391 275.191 16.6703Z" fill="#383737"/>
<path d="M310.815 24.8917C310.086 24.8917 309.356 24.8917 308.627 24.8917C308.627 21.2065 308.627 17.5505 308.627 13.8652C309.327 13.8652 310.057 13.8652 310.786 13.8652C310.786 15.2107 310.786 16.5561 310.786 17.9307C311.194 17.6967 311.545 17.4627 311.923 17.3165C313.645 16.6731 315.95 17.4043 316.096 19.8026C316.213 21.4698 316.125 23.1661 316.125 24.8917C315.425 24.8917 314.725 24.8917 313.966 24.8917C313.966 24.7747 313.937 24.6578 313.937 24.5408C313.937 23.2246 313.937 21.8792 313.937 20.563C313.937 19.9781 313.821 19.4516 313.237 19.1591C312.42 18.7497 311.399 19.1006 310.844 19.8903C310.786 19.9781 310.786 20.1243 310.786 20.2413C310.786 21.6745 310.786 23.1076 310.786 24.5115C310.815 24.6578 310.815 24.7747 310.815 24.8917Z" fill="#383737"/>
<path d="M293.776 23.4268C293.776 23.8364 293.776 24.2459 293.776 24.6845C293.776 24.743 293.717 24.86 293.659 24.8892C292.9 25.1233 292.142 25.211 291.442 24.8015C291.238 24.6845 291.062 24.4798 290.887 24.3336C290.421 24.5383 289.983 24.8308 289.487 24.9771C288.553 25.2695 287.59 25.2988 286.686 24.8308C285.898 24.4213 285.489 23.7194 285.489 22.8127C285.489 21.8767 285.898 21.204 286.745 20.7653C287.678 20.2681 288.699 20.2681 289.72 20.3558C290.012 20.3851 290.304 20.4436 290.596 20.4728C290.742 19.8294 290.391 19.2737 289.72 19.069C289.108 18.8934 288.495 18.9227 287.882 19.0396C287.328 19.1567 286.774 19.3029 286.19 19.4492C286.19 18.8642 286.19 18.2792 286.19 17.6943C286.19 17.6358 286.248 17.5772 286.306 17.5772C287.737 17.1386 289.166 16.9046 290.625 17.2848C292.025 17.6651 292.784 18.6302 292.842 20.1219C292.872 20.9408 292.872 21.7597 292.872 22.5787C292.813 23.4268 292.9 23.5147 293.776 23.4268ZM290.625 21.7597C289.837 21.6135 289.078 21.4673 288.32 21.789C287.853 21.9938 287.678 22.3155 287.737 22.7835C287.765 23.1344 288.086 23.4562 288.524 23.5147C289.224 23.6316 289.866 23.5147 290.45 23.0759C290.537 23.0174 290.625 22.9004 290.625 22.7835C290.625 22.4617 290.625 22.14 290.625 21.7597Z" fill="#383737"/>
<path d="M255.963 25.1515C254.474 25.093 253.162 24.625 252.345 23.3088C251.09 21.2908 251.674 17.5763 255.35 17.1375C256.342 17.0205 257.305 17.1375 258.209 17.6348C259.639 18.4244 260.339 19.9161 260.135 21.6709C259.901 23.5721 258.501 24.9175 256.517 25.093C256.342 25.1222 256.167 25.1222 255.963 25.1515ZM254.037 21.1445C254.008 21.1445 254.183 22.0512 254.416 22.4021C254.883 23.1626 255.671 23.2796 256.488 23.1333C257.217 22.9871 257.771 22.4314 257.888 21.6709C258.034 20.7935 257.947 19.9746 257.13 19.4189C256.458 18.9509 255.729 18.9509 255 19.3019C254.27 19.6528 254.037 20.3548 254.037 21.1445Z" fill="#383737"/>
<path d="M237.319 25.1535C235.802 25.095 234.577 24.6855 233.76 23.4864C232.855 22.1702 232.797 20.737 233.439 19.3331C234.052 17.9585 235.19 17.315 236.648 17.1395C238.049 16.9641 239.362 17.2565 240.354 18.2802C241.492 19.4501 241.696 20.9125 241.229 22.4334C240.791 23.925 239.683 24.7441 238.166 25.0365C237.845 25.095 237.524 25.1242 237.319 25.1535ZM237.232 19.0699C236.065 19.0699 235.306 19.8889 235.306 21.1173C235.306 22.3749 236.065 23.1646 237.232 23.1646C238.428 23.1646 239.216 22.3457 239.216 21.0881C239.216 19.8889 238.428 19.0407 237.232 19.0699Z" fill="#383737"/>
<path d="M284.528 21.8478C282.719 21.8478 280.939 21.8478 279.159 21.8478C279.334 22.579 279.801 22.9592 280.443 23.1932C281.551 23.5735 282.66 23.4564 283.769 23.1055C283.857 23.0762 283.944 23.047 284.06 23.0177C284.09 23.0177 284.09 23.0177 284.148 23.0177C284.148 23.515 284.148 24.0121 284.148 24.5094C284.148 24.7726 283.915 24.7726 283.739 24.8311C282.719 25.1528 281.668 25.2113 280.618 25.1236C279.86 25.0359 279.159 24.8018 278.547 24.3924C277.496 23.6612 277 22.6082 276.942 21.3506C276.883 19.8004 277.409 18.4843 278.809 17.6946C280.151 16.9341 281.581 16.9048 282.952 17.6653C284.148 18.3088 284.586 19.4202 284.615 20.7072C284.615 21.0288 284.556 21.4091 284.528 21.8478ZM279.159 20.3854C280.297 20.3854 281.406 20.3854 282.514 20.3854C282.631 19.5372 282.048 18.8645 281.172 18.806C280.005 18.7183 279.188 19.3617 279.159 20.3854Z" fill="#383737"/>
<path d="M245.081 24.8931C244.322 24.8931 243.622 24.8931 242.893 24.8931C242.893 22.3777 242.893 19.8624 242.893 17.3471C243.535 17.3471 244.147 17.3471 244.789 17.3471C244.789 17.6396 244.789 17.9028 244.789 18.2245C245.168 17.9613 245.46 17.6981 245.81 17.4933C247.298 16.6452 249.341 17.1716 250.07 18.6632C250.304 19.1312 250.391 19.6577 250.42 20.1841C250.479 21.7051 250.449 23.226 250.449 24.7469C250.449 24.7761 250.449 24.8346 250.42 24.8931C249.691 24.8931 248.991 24.8931 248.232 24.8931C248.232 24.7761 248.232 24.6299 248.232 24.5128C248.232 23.1675 248.232 21.7928 248.232 20.4474C248.232 19.8624 248.028 19.3652 247.444 19.1312C246.686 18.8095 245.548 19.1897 245.139 19.8917C245.081 19.9794 245.081 20.1256 245.081 20.2427C245.081 21.6758 245.081 23.0797 245.081 24.5128C245.081 24.6299 245.081 24.7469 245.081 24.8931Z" fill="#383737"/>
<path d="M307.081 19.4498C306.498 19.3036 305.972 19.1281 305.418 19.0404C305.039 18.9819 304.659 19.0111 304.281 19.0988C303.2 19.3328 302.647 20.1517 302.734 21.3217C302.792 22.3453 303.521 23.0765 304.543 23.1935C305.36 23.2812 306.148 23.1643 306.877 22.8426C306.935 22.8133 306.994 22.7841 307.052 22.7548C307.081 22.7548 307.081 22.7548 307.14 22.7548C307.14 23.3398 307.14 23.8955 307.14 24.4804C307.14 24.5389 307.052 24.6559 306.994 24.6559C305.593 25.2409 303.259 25.4164 301.742 24.188C300.779 23.3983 300.4 22.3161 300.429 21.0877C300.458 19.5668 301.042 18.3384 302.413 17.6072C303.872 16.8468 305.36 16.8467 306.877 17.5195C306.965 17.5487 307.052 17.6949 307.052 17.7827C307.081 18.3676 307.081 18.9234 307.081 19.4498Z" fill="#383737"/>
<path d="M297.045 24.8876C296.316 24.8876 295.616 24.8876 294.886 24.8876C294.886 22.3722 294.886 19.8861 294.886 17.3415C295.528 17.3415 296.141 17.3415 296.811 17.3415C296.811 17.6633 296.811 17.985 296.811 18.3945C297.628 17.3708 298.65 17.0491 299.846 17.1368C299.846 17.8388 299.846 18.5115 299.846 19.1842C299.35 19.2427 298.854 19.2719 298.388 19.3889C298.095 19.4766 297.803 19.6522 297.541 19.8569C297.191 20.0908 297.045 20.4419 297.045 20.9098C297.074 22.109 297.045 23.3082 297.045 24.5365C297.045 24.6243 297.045 24.7706 297.045 24.8876Z" fill="#383737"/>
<path d="M261.623 17.3474C262.265 17.3474 262.878 17.3474 263.549 17.3474C263.549 17.6984 263.549 18.0201 263.549 18.4296C264.366 17.4059 265.387 17.0842 266.583 17.172C266.583 17.8739 266.583 18.5466 266.583 19.2486C266.35 19.2486 266.116 19.2486 265.883 19.2486C265.124 19.3071 264.453 19.541 263.986 20.1553C263.87 20.3015 263.782 20.5354 263.782 20.711C263.753 21.9686 263.782 23.2263 263.782 24.484C263.782 24.6009 263.782 24.7179 263.782 24.8641C263.053 24.8641 262.352 24.8641 261.623 24.8641C261.623 22.4073 261.623 19.892 261.623 17.3474Z" fill="#383737"/>
<path d="M176.31 12.2422L164.47 24.0822" stroke="#383737" stroke-width="0.789333" stroke-linecap="square" stroke-linejoin="round"/>
<path d="M164.47 12.2422L176.31 24.0822" stroke="#383737" stroke-width="0.789333" stroke-linecap="square" stroke-linejoin="round"/>
</svg>
