<svg width="296" height="28" viewBox="0 0 296 28" fill="none" xmlns="http://www.w3.org/2000/svg">
<path d="M10.8799 9.77379V22.8576H13.1948V8.08555H9.17531L2.31487 21.1905V8.08555H0V22.8576H4.01946L10.8799 9.77379Z" fill="#383737"/>
<path d="M25.0739 16.6322V22.8576H27.3888V8.08555H25.0739V14.5219H17.0771V8.08555H14.7622V22.8576H17.0771V16.6322H25.0739Z" fill="#383737"/>
<path d="M37.3036 22.8576V21.1694H38.5031C41.6177 21.1694 43.9746 18.6159 43.9746 15.4716C44.0378 12.475 41.5546 9.71048 38.5031 9.77379H37.3036V8.08555H34.9887V9.77379H33.7892C30.7378 9.71048 28.2546 12.475 28.3177 15.4716C28.3177 18.6159 30.6747 21.1694 33.7892 21.1694H34.9887V22.8576H37.3036ZM34.0838 18.9536C32.0425 18.9536 30.6326 17.3919 30.6326 15.4716C30.6326 13.5512 32.0425 11.9896 34.0838 11.9896H34.9887V18.9536H34.0838ZM38.2085 11.9896C40.2498 11.9896 41.6598 13.5512 41.6598 15.4716C41.6598 17.3919 40.2498 18.9536 38.2085 18.9536H37.3036V11.9896H38.2085Z" fill="#383737"/>
<path d="M51.9531 7.87452C47.7442 7.79011 44.1877 11.3354 44.2719 15.4716C44.1877 19.6288 47.7442 23.153 51.9531 23.0686C56.1619 23.153 59.7184 19.6288 59.6342 15.4716C59.7184 11.3354 56.1619 7.79011 51.9531 7.87452ZM51.9531 20.8528C49.049 20.8528 46.692 18.7003 46.692 15.4927C46.692 12.3272 48.9858 10.0903 51.9531 10.0903C54.9203 10.0903 57.2141 12.285 57.2141 15.4716C57.2141 18.6581 54.8572 20.8528 51.9531 20.8528Z" fill="#383737"/>
<path d="M71.5127 10.3014V8.08555H60.5697V22.8576H62.8846V10.3014H71.5127Z" fill="#383737"/>
<path d="M74.4614 16.9488H78.9859C82.0373 16.9488 83.7209 14.8174 83.7209 12.5172C83.7209 10.1325 82.0584 8.08555 78.9859 8.08555H72.1465V22.8576H74.4614V16.9488ZM74.4614 14.733V10.3014H78.7755C80.2696 10.3014 81.3008 11.1666 81.3008 12.5172C81.3008 13.8678 80.2696 14.733 78.7755 14.733H74.4614Z" fill="#383737"/>
<path d="M81.4537 22.8576H84.0632L85.4731 19.2701H92.7545L94.1644 22.8576H96.7739L90.7132 8.08555H87.5144L81.4537 22.8576ZM86.2939 17.1598L89.1138 10.0059L91.9337 17.1598H86.2939Z" fill="#383737"/>
<path d="M104.374 22.8576V21.1694H105.574C108.688 21.1694 111.045 18.6159 111.045 15.4716C111.108 12.475 108.625 9.71048 105.574 9.77379H104.374V8.08555H102.059V9.77379H100.86C97.8082 9.71048 95.325 12.475 95.3881 15.4716C95.3881 18.6159 97.7451 21.1694 100.86 21.1694H102.059V22.8576H104.374ZM101.154 18.9536C99.113 18.9536 97.703 17.3919 97.703 15.4716C97.703 13.5512 99.113 11.9896 101.154 11.9896H102.059V18.9536H101.154ZM105.279 11.9896C107.32 11.9896 108.73 13.5512 108.73 15.4716C108.73 17.3919 107.32 18.9536 105.279 18.9536H104.374V11.9896H105.279Z" fill="#383737"/>
<path d="M122.854 9.77379V22.8576H125.168V8.08555H121.149L114.289 21.1905V8.08555H111.974V22.8576H115.993L122.854 9.77379Z" fill="#383737"/>
<path d="M126.736 22.8576H129.051V16.168L135.469 22.8576H138.731L131.26 15.155L138.31 8.08555H135.259L129.051 14.332V8.08555H126.736V22.8576Z" fill="#383737"/>
<path d="M137.81 22.8576H140.42L141.83 19.2701H149.111L150.521 22.8576H153.131L147.07 8.08555H143.871L137.81 22.8576ZM142.651 17.1598L145.471 10.0059L148.29 17.1598H142.651Z" fill="#383737"/>
<g clip-path="url(#clip0_1370_44142)">
<path d="M201.059 16.954C201.034 16.8563 201.01 16.7586 200.986 16.6609C200.986 16.6365 200.961 16.6121 200.961 16.5632C200.864 16.0013 200.84 15.5128 200.864 15.0486C200.937 12.4836 202.667 10.3095 204.982 9.5522C203.008 5.88794 200.06 0.513672 200.06 0.513672C200.06 0.513672 194.528 10.7003 193.602 12.5569C192.676 14.4135 191.726 16.0013 191.726 18.5907C191.726 18.7373 191.701 18.8839 191.701 19.0305C191.701 23.6718 195.454 27.4583 200.108 27.4583C202.155 27.4583 204.056 26.7254 205.494 25.4795L205.104 24.9421C202.935 21.8641 201.571 19.177 201.059 16.954Z" fill="#383737"/>
<path d="M210.977 14.973C210.928 12.7257 209.125 10.918 206.858 10.918C206.493 10.918 206.127 10.9668 205.811 11.0645C204.08 11.5287 202.789 13.0921 202.765 14.973C202.74 15.2418 202.74 15.6082 202.838 16.0479C202.838 16.0723 202.838 16.0723 202.838 16.0968C202.862 16.1945 202.862 16.2677 202.886 16.3411C203.569 19.3702 206.03 22.9367 206.834 24.0604L206.858 24.0849C207.638 23.01 210.148 19.3947 210.831 16.3167C210.855 16.2433 210.879 16.1456 210.879 16.0723C210.879 16.0479 210.879 16.0479 210.879 16.0235C211.001 15.5838 211.026 15.2418 210.977 14.973ZM206.883 16.6831C206.006 16.6831 205.299 15.9746 205.299 15.0952C205.299 14.2158 206.006 13.5074 206.883 13.5074C207.76 13.5074 208.467 14.2158 208.467 15.0952C208.467 15.9746 207.76 16.6831 206.883 16.6831Z" fill="#383737"/>
<path d="M216.753 20.3951C216.753 17.2927 216.753 14.2391 216.753 11.1611C216.826 11.1611 216.875 11.1367 216.924 11.1367C218.191 11.1367 219.458 11.1367 220.725 11.1611C221.529 11.1856 222.309 11.381 223.016 11.7963C223.966 12.3581 224.575 13.1887 224.843 14.2636C225.185 15.5827 225.136 16.8774 224.527 18.1232C223.99 19.2225 223.089 19.8821 221.944 20.1508C221.383 20.2974 220.798 20.3462 220.213 20.3707C219.068 20.4195 217.923 20.3951 216.753 20.3951ZM218.727 18.6607C219.507 18.6362 220.262 18.6607 221.017 18.563C222.041 18.4164 222.723 17.7079 222.943 16.682C223.064 16.0713 223.064 15.4361 222.943 14.8254C222.723 13.8238 222.065 13.1154 221.066 12.9689C220.384 12.8711 219.677 12.8956 218.995 12.8467C218.776 12.8222 218.727 12.92 218.727 13.1154C218.727 14.8743 218.727 16.6331 218.727 18.392C218.702 18.4653 218.727 18.5385 218.727 18.6607Z" fill="#383737"/>
<path d="M261.08 13.5058C260.447 13.115 259.837 12.8707 259.179 12.773C258.57 12.6753 257.961 12.6509 257.352 12.8219C257.011 12.9196 256.767 13.115 256.718 13.457C256.67 13.799 256.84 14.0677 257.108 14.2143C257.596 14.4585 258.107 14.654 258.619 14.8494C259.253 15.1181 259.935 15.338 260.52 15.6799C261.836 16.4617 262.177 18.1473 261.348 19.3687C260.91 20.0283 260.227 20.3214 259.472 20.4679C257.912 20.7367 256.401 20.5657 254.964 19.8816C254.793 19.8084 254.72 19.7107 254.72 19.5153C254.744 19.0755 254.72 18.6114 254.72 18.1717C254.72 18.0984 254.72 18.0251 254.744 17.9518C255.232 18.1717 255.695 18.3915 256.182 18.5625C257.059 18.8557 257.985 18.929 258.911 18.758C259.009 18.7336 259.082 18.7091 259.179 18.6846C259.837 18.4404 259.959 17.732 259.399 17.2922C259.082 17.048 258.717 16.9014 258.351 16.7548C257.669 16.4861 256.986 16.2418 256.304 15.9487C255.695 15.68 255.183 15.2647 254.891 14.6296C254.281 13.286 254.891 11.7714 256.255 11.2584C257.839 10.6721 259.399 10.892 260.91 11.576C260.958 11.6004 261.032 11.6981 261.032 11.747C261.08 12.3333 261.08 12.8951 261.08 13.5058Z" fill="#383737"/>
<path d="M290.834 20.3716C290.225 20.3716 289.616 20.3716 289.007 20.3716C289.007 17.2936 289.007 14.2401 289.007 11.1621C289.591 11.1621 290.201 11.1621 290.81 11.1621C290.81 12.2858 290.81 13.4095 290.81 14.5577C291.151 14.3622 291.444 14.1668 291.76 14.0447C293.198 13.5073 295.123 14.118 295.245 16.1211C295.343 17.5136 295.269 18.9304 295.269 20.3716C294.685 20.3716 294.1 20.3716 293.466 20.3716C293.466 20.2739 293.442 20.1762 293.442 20.0785C293.442 18.9792 293.442 17.8555 293.442 16.7562C293.442 16.2677 293.345 15.828 292.857 15.5836C292.174 15.2417 291.322 15.5348 290.859 16.1944C290.81 16.2677 290.81 16.3898 290.81 16.4875C290.81 17.6845 290.81 18.8815 290.81 20.0541C290.834 20.1762 290.834 20.2739 290.834 20.3716Z" fill="#383737"/>
<path d="M276.603 19.1489C276.603 19.4909 276.603 19.8329 276.603 20.1993C276.603 20.2482 276.554 20.3459 276.505 20.3703C275.871 20.5658 275.238 20.6391 274.654 20.297C274.483 20.1993 274.337 20.0284 274.19 19.9062C273.8 20.0772 273.435 20.3215 273.021 20.4437C272.24 20.6879 271.436 20.7123 270.681 20.3215C270.023 19.9795 269.682 19.3932 269.682 18.636C269.682 17.8542 270.023 17.2923 270.73 16.9259C271.51 16.5106 272.363 16.5106 273.215 16.5839C273.459 16.6083 273.703 16.6572 273.947 16.6816C274.068 16.1443 273.776 15.6801 273.215 15.5091C272.704 15.3625 272.192 15.3869 271.68 15.4846C271.217 15.5824 270.755 15.7045 270.267 15.8267C270.267 15.3381 270.267 14.8495 270.267 14.361C270.267 14.3121 270.316 14.2632 270.364 14.2632C271.559 13.8968 272.753 13.7014 273.971 14.0189C275.141 14.3365 275.774 15.1427 275.823 16.3885C275.848 17.0725 275.848 17.7565 275.848 18.4405C275.799 19.1489 275.871 19.2222 276.603 19.1489ZM273.971 17.7565C273.313 17.6344 272.679 17.5122 272.046 17.7809C271.656 17.952 271.51 18.2206 271.559 18.6115C271.583 18.9046 271.851 19.1734 272.217 19.2222C272.801 19.3199 273.337 19.2222 273.825 18.8558C273.898 18.8069 273.971 18.7092 273.971 18.6115C273.971 18.3428 273.971 18.0741 273.971 17.7565Z" fill="#383737"/>
<path d="M245.02 20.5897C243.778 20.5408 242.681 20.1499 241.999 19.0506C240.951 17.3651 241.438 14.2627 244.509 13.8963C245.337 13.7985 246.141 13.8963 246.897 14.3116C248.091 14.9711 248.676 16.217 248.505 17.6826C248.31 19.2705 247.141 20.3942 245.484 20.5408C245.337 20.5652 245.191 20.5652 245.02 20.5897ZM243.412 17.2429C243.388 17.2429 243.534 18.0003 243.729 18.2934C244.119 18.9285 244.777 19.0262 245.459 18.9041C246.068 18.7819 246.531 18.3178 246.629 17.6826C246.751 16.9498 246.678 16.2658 245.995 15.8017C245.435 15.4108 244.826 15.4108 244.216 15.704C243.607 15.9971 243.412 16.5834 243.412 17.2429Z" fill="#383737"/>
<path d="M229.449 20.5907C228.182 20.5418 227.159 20.1998 226.476 19.1983C225.721 18.099 225.672 16.902 226.208 15.7294C226.72 14.5813 227.67 14.0438 228.889 13.8973C230.058 13.7507 231.155 13.995 231.984 14.85C232.934 15.8271 233.105 17.0486 232.715 18.3188C232.349 19.5647 231.423 20.2487 230.156 20.493C229.888 20.5418 229.62 20.5663 229.449 20.5907ZM229.376 15.5096C228.401 15.5096 227.768 16.1936 227.768 17.2196C227.768 18.27 228.401 18.9295 229.376 18.9295C230.375 18.9295 231.033 18.2456 231.033 17.1952C231.033 16.1936 230.375 15.4852 229.376 15.5096Z" fill="#383737"/>
<path d="M268.879 17.8306C267.368 17.8306 265.881 17.8306 264.395 17.8306C264.541 18.4414 264.931 18.759 265.467 18.9544C266.393 19.272 267.319 19.1742 268.245 18.8811C268.318 18.8567 268.391 18.8322 268.488 18.8078C268.513 18.8078 268.513 18.8078 268.562 18.8078C268.562 19.2231 268.562 19.6384 268.562 20.0537C268.562 20.2735 268.366 20.2735 268.22 20.3223C267.368 20.5911 266.49 20.6399 265.613 20.5667C264.98 20.4934 264.395 20.2979 263.883 19.956C263.005 19.3452 262.591 18.4658 262.543 17.4154C262.494 16.1206 262.933 15.0214 264.102 14.3619C265.223 13.7266 266.417 13.7022 267.562 14.3374C268.562 14.8748 268.927 15.8031 268.951 16.878C268.951 17.1467 268.902 17.4643 268.879 17.8306ZM264.395 16.6092C265.345 16.6092 266.271 16.6092 267.197 16.6092C267.294 15.9008 266.807 15.3389 266.076 15.2901C265.101 15.2168 264.419 15.7543 264.395 16.6092Z" fill="#383737"/>
<path d="M235.931 20.3726C235.298 20.3726 234.713 20.3726 234.104 20.3726C234.104 18.2717 234.104 16.1708 234.104 14.07C234.64 14.07 235.151 14.07 235.688 14.07C235.688 14.3143 235.688 14.5341 235.688 14.8029C236.004 14.583 236.248 14.3631 236.54 14.1922C237.783 13.4837 239.489 13.9234 240.098 15.1693C240.293 15.5601 240.366 15.9999 240.391 16.4395C240.439 17.7099 240.415 18.9802 240.415 20.2504C240.415 20.2748 240.415 20.3237 240.391 20.3726C239.782 20.3726 239.197 20.3726 238.563 20.3726C238.563 20.2749 238.563 20.1527 238.563 20.0549C238.563 18.9313 238.563 17.7832 238.563 16.6594C238.563 16.1708 238.392 15.7555 237.905 15.5601C237.272 15.2915 236.321 15.609 235.98 16.1953C235.931 16.2686 235.931 16.3907 235.931 16.4885C235.931 17.6854 235.931 18.858 235.931 20.0549C235.931 20.1527 235.931 20.2504 235.931 20.3726Z" fill="#383737"/>
<path d="M287.715 15.8276C287.228 15.7055 286.789 15.5589 286.327 15.4857C286.01 15.4368 285.692 15.4612 285.376 15.5345C284.474 15.7299 284.011 16.4139 284.084 17.3911C284.133 18.246 284.742 18.8568 285.595 18.9545C286.278 19.0277 286.935 18.93 287.545 18.6614C287.593 18.6369 287.642 18.6125 287.691 18.5881C287.715 18.5881 287.715 18.5881 287.764 18.5881C287.764 19.0767 287.764 19.5407 287.764 20.0293C287.764 20.0782 287.691 20.1759 287.642 20.1759C286.472 20.6645 284.523 20.811 283.256 19.7851C282.451 19.1255 282.135 18.2216 282.16 17.1957C282.183 15.9253 282.671 14.8994 283.816 14.2887C285.035 13.6535 286.278 13.6535 287.545 14.2154C287.618 14.2398 287.691 14.3619 287.691 14.4352C287.715 14.9238 287.715 15.388 287.715 15.8276Z" fill="#383737"/>
<path d="M279.333 20.3698C278.724 20.3698 278.139 20.3698 277.529 20.3698C277.529 18.2689 277.529 16.1925 277.529 14.0672C278.065 14.0672 278.578 14.0672 279.138 14.0672C279.138 14.336 279.138 14.6047 279.138 14.9467C279.82 14.0917 280.673 13.823 281.673 13.8963C281.673 14.4825 281.673 15.0444 281.673 15.6063C281.258 15.6551 280.844 15.6795 280.454 15.7772C280.21 15.8505 279.966 15.9971 279.747 16.1681C279.455 16.3635 279.333 16.6567 279.333 17.0475C279.357 18.0491 279.333 19.0507 279.333 20.0766C279.333 20.1499 279.333 20.2721 279.333 20.3698Z" fill="#383737"/>
<path d="M249.748 14.0702C250.284 14.0702 250.796 14.0702 251.356 14.0702C251.356 14.3633 251.356 14.632 251.356 14.974C252.039 14.119 252.892 13.8503 253.891 13.9236C253.891 14.5099 253.891 15.0717 253.891 15.658C253.696 15.658 253.501 15.658 253.306 15.658C252.672 15.7069 252.112 15.9023 251.722 16.4153C251.624 16.5374 251.551 16.7328 251.551 16.8795C251.527 17.9298 251.551 18.9803 251.551 20.0307C251.551 20.1284 251.551 20.2261 251.551 20.3482C250.942 20.3482 250.357 20.3482 249.748 20.3482C249.748 18.2963 249.748 16.1954 249.748 14.0702Z" fill="#383737"/>
</g>
<path d="M176.022 10.2422L164.182 22.0822" stroke="#383737" stroke-width="0.789333" stroke-linecap="square" stroke-linejoin="round"/>
<path d="M164.182 10.2422L176.022 22.0822" stroke="#383737" stroke-width="0.789333" stroke-linecap="square" stroke-linejoin="round"/>
<defs>
<clipPath id="clip0_1370_44142">
<rect width="104.981" height="27.995" fill="white" transform="translate(191.019)"/>
</clipPath>
</defs>
</svg>
