<svg width="134" height="46" viewBox="0 0 134 46" fill="none" xmlns="http://www.w3.org/2000/svg">
<path d="M40.9402 7.68164H37.7462H33.778H21.9701C20.0344 7.68164 18.3407 8.89147 17.6631 10.682L10.3558 30.8619C9.6783 32.6524 7.98455 33.8623 6.04883 33.8623H9.24277H12.6303H25.0189C26.9546 33.8623 28.6484 32.6524 29.3259 30.8619L36.6816 10.682C37.3107 8.89147 39.0045 7.68164 40.9402 7.68164Z" fill="#CAAC77"/>
<path d="M16.3568 10.1964C17.2279 7.82515 19.5024 6.27657 21.9704 6.27657H23.8578L24.9708 3.22781C25.5031 1.77602 26.9065 0.759766 28.4551 0.759766H25.8419H22.5995H12.9693C11.4207 0.759766 10.0174 1.72763 9.48503 3.22781L3.4843 19.7298C2.95197 21.1816 1.54858 22.1979 0 22.1979H2.61322H5.37162H12.0015L16.3568 10.1964Z" fill="#E0D2B6"/>
<path d="M46.1662 16.7305H46.747C47.1341 16.7305 47.4728 16.7788 47.8116 16.8756C48.1504 16.9724 48.3923 17.1176 48.6343 17.3596C48.8762 17.5531 49.0698 17.8435 49.1666 18.1338C49.3118 18.4242 49.3602 18.763 49.3602 19.1501C49.3602 19.5372 49.3118 19.876 49.1666 20.2147C49.0214 20.5051 48.8279 20.7955 48.5859 20.989C48.3439 21.1826 48.0536 21.3762 47.7632 21.473C47.4245 21.5697 47.0857 21.6181 46.747 21.6181H46.1662V22.4408H44.7144V21.6181H44.1337C43.7466 21.6181 43.4078 21.5697 43.0691 21.473C42.7303 21.3762 42.4884 21.231 42.2464 20.989C42.0044 20.7955 41.8593 20.5051 41.7141 20.2147C41.5689 19.9244 41.5205 19.5856 41.5205 19.1985C41.5205 18.8113 41.5689 18.4726 41.7141 18.1338C41.8593 17.8435 42.0528 17.5531 42.2948 17.3596C42.5368 17.166 42.8271 16.9724 43.1175 16.8756C43.4562 16.7788 43.7466 16.7305 44.1337 16.7305H44.7144V15.8594H46.1662V16.7305ZM44.2305 17.9887C43.8434 17.9887 43.5046 18.0855 43.3111 18.3274C43.1175 18.521 42.9723 18.8597 42.9723 19.1985C42.9723 19.5856 43.0691 19.876 43.3111 20.0696C43.553 20.2631 43.8434 20.3599 44.2305 20.3599H44.7628V17.9887H44.2305ZM46.6986 20.4083C47.0857 20.4083 47.4245 20.3115 47.618 20.0696C47.8116 19.8276 47.9568 19.5372 47.9568 19.1985C47.9568 18.8113 47.86 18.521 47.618 18.3274C47.3761 18.1338 47.0857 18.0371 46.6986 18.0371H46.1662V20.4083H46.6986Z" fill="#ECECEC"/>
<path d="M55.41 16.1488C55.8456 16.3424 56.1843 16.536 56.4747 16.8747C56.7651 17.1651 57.007 17.5522 57.1522 17.9394C57.2974 18.3265 57.3942 18.8104 57.3942 19.2944C57.3942 19.7783 57.2974 20.2138 57.1522 20.601C57.007 20.9881 56.7651 21.3753 56.4263 21.6656C56.1359 21.956 55.7488 22.198 55.3617 22.3915C54.9745 22.4883 54.4906 22.5851 54.0067 22.5851C53.5227 22.5851 53.0388 22.4883 52.6516 22.3431C52.2161 22.1496 51.8774 21.956 51.587 21.6172C51.2966 21.3269 51.0547 20.9397 50.8611 20.5526C50.7159 20.1654 50.6191 19.6815 50.6191 19.246C50.6191 18.7621 50.7159 18.3265 50.8611 17.9394C51.0063 17.5522 51.2482 17.1651 51.587 16.8747C51.8774 16.5844 52.2645 16.3424 52.6516 16.1488C53.0872 15.9553 53.5227 15.9069 54.0067 15.9069C54.4906 15.8585 54.9745 15.9553 55.41 16.1488ZM53.184 17.3103C52.942 17.407 52.7484 17.5522 52.5549 17.7458C52.3613 17.9394 52.2645 18.1329 52.1677 18.4233C52.0709 18.6653 52.0225 18.9556 52.0225 19.246C52.0225 19.5363 52.0709 19.8267 52.1677 20.0687C52.2645 20.3106 52.4097 20.5526 52.5549 20.7462C52.7484 20.9397 52.942 21.0849 53.184 21.1817C53.4259 21.2785 53.7163 21.3269 54.0067 21.3269C54.297 21.3269 54.5874 21.2785 54.8293 21.1817C55.0713 21.0849 55.2649 20.9397 55.4584 20.7462C55.652 20.5526 55.7488 20.359 55.8456 20.0687C55.9424 19.8267 55.9908 19.5363 55.9908 19.2944C55.9908 19.004 55.9424 18.7137 55.8456 18.4717C55.7488 18.2297 55.6036 17.9878 55.4584 17.7942C55.2649 17.6006 55.0713 17.4554 54.8293 17.3587C54.5874 17.2619 54.297 17.2135 54.0067 17.2135C53.6679 17.1651 53.4259 17.2135 53.184 17.3103Z" fill="#ECECEC"/>
<path d="M60.2965 18.5203H63.1033V16.0039H64.5551V22.4402H63.1033V19.8753H60.2965V22.4402H58.8447V16.0039H60.2965V18.5203Z" fill="#ECECEC"/>
<path d="M72.2976 21.1804H73.2171V21.5676L73.0719 23.8421H71.7653L71.7169 22.4871H67.3615L67.2647 23.8421H65.9581L65.8613 21.616V21.2288H66.1517C66.2969 21.2288 66.442 21.1804 66.5388 21.0837C66.684 20.9869 66.7808 20.8417 66.8776 20.6481C67.0712 20.261 67.1679 19.777 67.2647 19.1479C67.3615 18.5188 67.3615 17.8897 67.3615 17.1154V16.0508H72.2492V21.1804H72.2976ZM68.6681 19.6319C68.5713 20.261 68.4262 20.7933 68.2326 21.132H70.8458V17.2606H68.8617C68.8617 18.2285 68.7649 19.0028 68.6681 19.6319Z" fill="#ECECEC"/>
<path d="M47.5218 34.0046H46.07V28.9234H43.36V34.053H41.9082V27.5684H47.5218V34.0046Z" fill="#ECECEC"/>
<path d="M53.2314 27.7135C53.5217 27.8103 53.8121 28.0039 54.054 28.1975C54.296 28.391 54.4412 28.633 54.5864 28.9234C54.7315 29.2137 54.7799 29.5041 54.7799 29.8912C54.7799 30.2784 54.7315 30.6171 54.5864 30.9075C54.4412 31.1978 54.2476 31.4398 54.0056 31.6334C53.7637 31.8269 53.4733 31.9721 53.1346 32.1173C52.7958 32.2141 52.4571 32.2625 52.0699 32.2625H50.7633V34.0046H49.3115V27.5684H52.1667C52.5539 27.5684 52.8926 27.6168 53.2314 27.7135ZM52.0699 30.9559C52.4571 30.9559 52.7474 30.8591 52.9894 30.6655C53.183 30.4719 53.3281 30.23 53.3281 29.8912C53.3281 29.5525 53.2314 29.3105 53.0378 29.1169C52.8442 28.9234 52.5539 28.8266 52.1667 28.8266H50.8117V30.9559H52.0699Z" fill="#ECECEC"/>
<path d="M60.9267 28.875H57.5391V30.0848H60.5879V31.343H57.5391V32.698H61.1202V34.0046H56.1357V27.5684H60.975V28.875H60.9267Z" fill="#ECECEC"/>
<path d="M65.9117 29.8923C66.0569 29.7955 66.1053 29.6503 66.1053 29.4568C66.1053 29.2148 66.0085 29.0212 65.8633 28.9244C65.6697 28.7793 65.4278 28.7309 65.0406 28.7309C64.4599 28.7309 63.8792 28.9244 63.3469 29.36L62.5726 28.3921C62.9113 28.1018 63.2985 27.8598 63.734 27.7146C64.1696 27.5694 64.6051 27.4727 65.089 27.4727C65.4762 27.4727 65.8149 27.5211 66.1053 27.6178C66.3956 27.7146 66.686 27.8114 66.8796 28.005C67.0731 28.1502 67.2667 28.3437 67.3635 28.5857C67.4603 28.8277 67.5087 29.0696 67.5087 29.3116C67.5087 29.602 67.4603 29.8439 67.3635 30.0375C67.2667 30.2795 67.0731 30.4246 66.8796 30.5698V30.6666C67.1699 30.7634 67.4119 30.957 67.6055 31.1989C67.799 31.4409 67.8474 31.7312 67.8474 32.1184C67.8474 32.4087 67.799 32.6991 67.6538 32.9411C67.5571 33.183 67.3635 33.425 67.1215 33.6186C66.8796 33.8121 66.5892 33.9573 66.2505 34.0541C65.9117 34.1509 65.4762 34.1993 65.0406 34.1993C64.7503 34.1993 64.5083 34.1993 64.2663 34.1509C64.0244 34.1025 63.7824 34.0541 63.5404 34.0057C63.2985 33.9089 63.1049 33.8121 62.9113 33.7154C62.7178 33.6186 62.5242 33.4734 62.2822 33.2798L63.0565 32.2152C63.3953 32.4571 63.734 32.6507 64.0728 32.7959C64.4115 32.8927 64.7503 32.9411 65.1858 32.9411C65.6213 32.9411 65.9117 32.8443 66.1537 32.6991C66.3472 32.5539 66.444 32.312 66.444 32.07C66.444 31.6345 66.1537 31.3925 65.5729 31.3925H63.9276V30.1343H65.3794C65.6213 30.0859 65.7665 30.0375 65.9117 29.8923Z" fill="#ECECEC"/>
<path d="M70.7018 31.8753L73.7989 27.5684H75.0572V34.0046H73.6054V29.9396L70.6534 34.0046H69.25V27.5684H70.6534V31.8753H70.7018Z" fill="#ECECEC"/>
<path d="M82.7996 32.698H83.719V33.0852L83.5738 35.3596H82.2672L82.2188 34.0046H77.8635L77.7667 35.3596H76.4601L76.3633 33.1336V32.7464H76.6536C76.7988 32.7464 76.944 32.698 77.0408 32.6012C77.186 32.5044 77.2828 32.3593 77.3795 32.1657C77.5731 31.7786 77.6699 31.2946 77.7667 30.6655C77.8635 30.0364 77.8635 29.3589 77.8635 28.633V27.5684H82.7512V32.698H82.7996ZM79.2185 31.1978C79.1217 31.8269 78.9765 32.3593 78.7829 32.698H81.3962V28.8266H79.412C79.3636 29.746 79.3153 30.5203 79.2185 31.1978Z" fill="#ECECEC"/>
<path d="M89.913 28.875H86.5255V30.0848H89.5742V31.343H86.5255V32.698H90.1066V34.0046H85.1221V27.5684H89.9614V28.875H89.913Z" fill="#ECECEC"/>
<path d="M93.0592 30.0848H95.866V27.5684H97.3178V34.0046H95.866V31.4398H93.0592V34.0046H91.6074V27.5684H93.0592V30.0848Z" fill="#ECECEC"/>
<path d="M104.529 28.875H102.303V34.0046H100.851V28.875H98.625V27.5684H104.481V28.875H104.529Z" fill="#ECECEC"/>
<path d="M109.948 28.9244C109.657 28.8277 109.319 28.7793 108.98 28.7793C108.689 28.7793 108.399 28.8277 108.109 28.9244C107.867 29.0212 107.625 29.1664 107.48 29.36C107.286 29.5536 107.141 29.7471 107.044 29.9891C106.947 30.2311 106.899 30.5214 106.899 30.8118C106.899 31.1021 106.947 31.3925 107.044 31.6345C107.141 31.8764 107.286 32.1184 107.48 32.2636C107.673 32.4571 107.867 32.5539 108.109 32.6991C108.351 32.7959 108.641 32.8443 108.931 32.8443C109.319 32.8443 109.657 32.7959 109.948 32.6507C110.286 32.5055 110.528 32.3603 110.819 32.1184L111.641 33.1346C110.916 33.8121 109.996 34.1509 108.883 34.1509C108.399 34.1509 107.915 34.0541 107.528 33.9089C107.093 33.7637 106.754 33.5218 106.463 33.2314C106.173 32.9411 105.931 32.6023 105.786 32.1668C105.641 31.7796 105.544 31.2957 105.544 30.8118C105.544 30.3278 105.641 29.8923 105.786 29.5052C105.931 29.118 106.173 28.7309 106.512 28.4405C106.802 28.1502 107.189 27.9082 107.625 27.7146C108.06 27.521 108.544 27.4727 109.125 27.4727C109.609 27.4727 110.093 27.5694 110.48 27.7146C110.916 27.8598 111.254 28.1018 111.593 28.3921L110.819 29.4568C110.48 29.1664 110.238 29.0212 109.948 28.9244Z" fill="#ECECEC"/>
<path d="M114.401 30.0364L115.127 29.9396L116.966 27.5684H118.756L116.385 30.5687L118.998 34.0046H117.159L115.175 31.2462H114.449V34.0046H113.046V27.5684H114.449V30.0364H114.401Z" fill="#ECECEC"/>
<path d="M121.66 31.8753L124.757 27.5684H126.015V34.0046H124.563V29.9396L121.611 34.0046H120.208V27.5684H121.611V31.8753H121.66Z" fill="#ECECEC"/>
<path d="M130.66 29.8444H130.757L132.015 27.5215H133.806L131.725 30.7154L134 34.0061H132.112L130.66 31.5381H130.564L129.16 34.0061H127.321L129.596 30.667L127.515 27.5699H129.305L130.66 29.8444Z" fill="#ECECEC"/>
<path d="M46.7471 40.4394H43.3112V45.5691H41.8594V39.1328H46.7471V40.4394Z" fill="#ECECEC"/>
<path d="M51.9735 39.278C52.2639 39.3748 52.5543 39.5684 52.7962 39.7619C53.0382 39.9555 53.1834 40.1975 53.3286 40.4878C53.4737 40.7782 53.5221 41.0685 53.5221 41.4557C53.5221 41.8428 53.4737 42.1816 53.3286 42.4719C53.1834 42.7623 52.9898 43.0043 52.7478 43.1978C52.5059 43.3914 52.2155 43.5366 51.8768 43.6818C51.538 43.7785 51.1993 43.8269 50.8121 43.8269H49.5055V45.5691H48.0537V39.1328H50.9089C51.296 39.1328 51.6348 39.1812 51.9735 39.278ZM50.8121 42.5203C51.1993 42.5203 51.4896 42.4235 51.7316 42.23C51.9252 42.0364 52.0703 41.7944 52.0703 41.4557C52.0703 41.1169 51.9735 40.875 51.78 40.6814C51.5864 40.4878 51.296 40.391 50.9089 40.391H49.5539V42.5203H50.8121Z" fill="#ECECEC"/>
<path d="M60.8288 45.5691H59.2319L58.7479 44.3109H55.9895L55.5056 45.5691H53.957L56.6186 39.1328H58.2156L60.8288 45.5691ZM58.264 43.0043L57.3929 40.5362H57.2962L56.4251 43.0043H58.264Z" fill="#ECECEC"/>
<path d="M63.5875 41.6493H66.3943V39.1328H67.8461V45.5691H66.3943V43.0043H63.5875V45.5691H62.1357V39.1328H63.5875V41.6493Z" fill="#ECECEC"/>
<path d="M75.0563 40.4394H72.8302V45.5691H71.3784V40.4394H69.1523V39.1328H75.0079V40.4394H75.0563Z" fill="#ECECEC"/>
<path d="M80.8149 39.2316C81.2504 39.4251 81.5892 39.6187 81.8795 39.9574C82.1699 40.2478 82.4119 40.6349 82.557 41.0221C82.7022 41.4092 82.799 41.8932 82.799 42.3771C82.799 42.861 82.7022 43.2966 82.557 43.6837C82.4119 44.0709 82.1699 44.458 81.8311 44.7484C81.5408 45.0387 81.1536 45.2807 80.7665 45.4743C80.331 45.6678 79.8954 45.7162 79.3631 45.7162C78.8792 45.7162 78.3952 45.6194 78.0081 45.4743C77.5726 45.3291 77.2338 45.0871 76.9434 44.7484C76.6531 44.458 76.4111 44.0709 76.2176 43.6837C76.0724 43.2966 75.9756 42.8126 75.9756 42.3771C75.9756 41.8932 76.0724 41.4576 76.2176 41.0705C76.3627 40.6833 76.6047 40.2962 76.9434 40.0058C77.2338 39.7155 77.621 39.4735 78.0081 39.2799C78.4436 39.0864 78.8792 39.038 79.3631 39.038C79.9438 38.9896 80.3793 39.0864 80.8149 39.2316ZM78.5888 40.4414C78.3468 40.5382 78.1533 40.6833 77.9597 40.8769C77.7661 41.0705 77.6693 41.2641 77.5726 41.5544C77.4758 41.7964 77.4274 42.0867 77.4274 42.3771C77.4274 42.6675 77.4758 42.9578 77.5726 43.1998C77.6693 43.4417 77.8145 43.6837 77.9597 43.8773C78.1533 44.0709 78.3468 44.216 78.5888 44.3128C78.8308 44.4096 79.1211 44.458 79.4115 44.458C79.7019 44.458 79.9922 44.4096 80.2342 44.3128C80.4761 44.216 80.6697 44.0709 80.8633 43.8773C81.0569 43.6837 81.1536 43.4901 81.2504 43.1998C81.3472 42.9578 81.3956 42.6675 81.3956 42.4255C81.3956 42.1351 81.3472 41.8448 81.2504 41.6028C81.1536 41.3608 81.0085 41.1189 80.8633 40.9253C80.6697 40.7317 80.4761 40.5866 80.2342 40.4898C79.9922 40.393 79.7019 40.3446 79.4115 40.3446C79.1211 40.2478 78.8308 40.3446 78.5888 40.4414Z" fill="#ECECEC"/>
<path d="M88.7993 39.5684C89.1864 39.8587 89.38 40.2942 89.38 40.875C89.38 41.1653 89.3316 41.4073 89.2348 41.6009C89.138 41.7944 88.9928 41.988 88.7993 42.0848V42.1816C89.0896 42.2784 89.38 42.4719 89.5736 42.7139C89.7671 43.0043 89.8639 43.2946 89.8639 43.6334C89.8639 43.8753 89.8155 44.1657 89.7187 44.3593C89.622 44.6012 89.4768 44.7948 89.2832 44.9884C89.0896 45.1819 88.8477 45.2787 88.5573 45.4239C88.2669 45.5207 87.8798 45.5691 87.4927 45.5691H84.3955V39.1328H87.2507C87.8314 39.1328 88.4121 39.278 88.7993 39.5684ZM87.2023 41.6493C87.4443 41.6493 87.6378 41.6009 87.783 41.4557C87.9282 41.3589 87.9766 41.1653 87.9766 40.9717C87.9766 40.5362 87.6862 40.3426 87.1539 40.3426H85.7505V41.6493H87.2023ZM87.3959 44.3109C88.025 44.3109 88.3637 44.0689 88.3637 43.5366C88.3637 43.2946 88.2669 43.101 88.1218 43.0043C87.9766 42.8591 87.7346 42.8107 87.3959 42.8107H85.7021V44.3109H87.3959Z" fill="#ECECEC"/>
</svg>
