<svg width="124" height="22" viewBox="0 0 124 22" fill="none" xmlns="http://www.w3.org/2000/svg">
<path d="M37.6442 13.649C37.6442 15.3192 36.1198 16.5286 33.9747 16.5286H28.9502V6.16211H33.8052C35.894 6.16211 37.3619 7.31394 37.3619 8.92652C37.3619 10.0208 36.7973 10.7118 35.9505 11.115C36.8538 11.4605 37.6442 12.382 37.6442 13.649ZM31.152 8.06265V10.3087H33.7489C34.5393 10.3087 35.0473 9.84797 35.0473 9.21448C35.0473 8.58097 34.4828 8.06265 33.7489 8.06265H31.152ZM33.9747 14.6281C34.8215 14.6281 35.4424 14.1098 35.4424 13.3611C35.4424 12.6124 34.8778 12.0941 33.9747 12.0941H31.152V14.6281H33.9747Z" fill="white"/>
<path d="M45.9418 16.471L42.4418 12.382H41.8772V16.471H39.6191V6.16211H41.8772V10.1359H42.4418L45.8291 6.16211H48.4822L44.2483 11.115L48.8775 16.471H45.9418Z" fill="white"/>
<path d="M48.8779 11.3463C48.8779 8.23632 51.136 5.99023 54.2975 5.99023C57.4587 5.99023 59.717 8.23632 59.717 11.3463C59.717 14.4562 57.4587 16.7023 54.2975 16.7023C51.136 16.7023 48.8779 14.4562 48.8779 11.3463ZM57.3459 11.3463C57.3459 9.38816 56.104 8.06354 54.2975 8.06354C52.491 8.06354 51.249 9.38816 51.249 11.3463C51.249 13.3044 52.491 14.629 54.2975 14.629C56.104 14.629 57.3459 13.3044 57.3459 11.3463Z" fill="white"/>
<path d="M68.3546 6.16211H70.6127V16.471H68.3546V12.3244H63.8384V16.471H61.5801V6.16211H63.8384V10.2511H68.3546V6.16211Z" fill="white"/>
<path d="M75.4678 16.471V8.23541H71.9678V6.16211H81.1697V8.23541H77.6696V16.471H75.4678Z" fill="white"/>
<path d="M90.8791 10.7128V16.4719H89.2418L88.7903 14.8594C88.2822 15.7232 87.2095 16.7023 85.5725 16.7023C83.5402 16.7023 82.0723 15.3201 82.0723 13.4196C82.0723 11.519 83.5402 10.1944 86.5322 10.1944H88.7338C88.621 8.86981 87.9436 7.94837 86.7015 7.94837C85.6853 7.94837 85.0079 8.52428 84.6692 9.15777L82.6368 8.81224C83.1449 7.0269 84.8949 5.99023 86.8145 5.99023C89.2983 5.99023 90.8791 7.71798 90.8791 10.7128ZM88.6775 11.9798H86.5887C84.8949 11.9798 84.3306 12.5557 84.3306 13.3044C84.3306 14.1682 85.0079 14.7442 86.1371 14.7442C87.6048 14.7442 88.6775 13.6499 88.6775 11.9798Z" fill="white"/>
<path d="M99.5727 16.471L96.0727 12.382H95.5081V16.471H93.25V6.16211H95.5081V10.1359H96.0727L99.4599 6.16211H102.113L97.8792 11.115L102.508 16.471H99.5727Z" fill="white"/>
<path d="M106.573 16.471V8.23541H103.073V6.16211H112.275V8.23541H108.775V16.471H106.573Z" fill="white"/>
<path d="M123.566 11.9798H115.437C115.662 13.5923 116.791 14.629 118.485 14.629C119.67 14.629 120.574 14.1107 121.082 13.362L123.17 13.7075C122.437 15.6656 120.461 16.7023 118.315 16.7023C115.267 16.7023 113.065 14.4562 113.065 11.3463C113.065 8.23632 115.267 5.99023 118.315 5.99023C121.364 5.99023 123.566 8.23632 123.566 11.2311C123.622 11.519 123.566 11.7494 123.566 11.9798ZM115.606 10.1944H121.195C120.8 8.92741 119.783 8.00594 118.372 8.00594C117.017 7.94837 115.945 8.86981 115.606 10.1944Z" fill="white"/>
<path fill-rule="evenodd" clip-rule="evenodd" d="M1.67412 1.54648C0.158203 3.09296 0.158203 5.58197 0.158203 10.56V11.44C0.158203 16.418 0.158203 18.907 1.67412 20.4535C3.19002 22 5.62986 22 10.5095 22H11.3721C16.2518 22 18.6916 22 20.2075 20.4535C21.7233 18.907 21.7233 16.418 21.7233 11.44V10.56C21.7233 5.58197 21.7233 3.09296 20.2075 1.54648C18.6916 0 16.2518 0 11.3721 0H10.5095C5.62986 0 3.19002 0 1.67412 1.54648ZM3.79736 6.69172C3.91418 12.4117 6.71763 15.8492 11.6327 15.8492H11.9113V12.5767C13.7174 12.76 15.0831 14.1075 15.6312 15.8492H18.1832C17.4823 13.2459 15.6402 11.8067 14.49 11.2567C15.6402 10.5784 17.2576 8.92837 17.644 6.69172H15.3256C14.8224 8.50672 13.331 10.1567 11.9113 10.3125V6.69172H9.59297V13.035C8.1553 12.6684 6.34026 10.89 6.2594 6.69172H3.79736Z" fill="white"/>
</svg>
