<svg width="21" height="22" viewBox="0 0 21 22" fill="none" xmlns="http://www.w3.org/2000/svg">
<path d="M3.76373 14.3888C5.55976 14.3888 7.01574 12.9328 7.01574 11.1368C7.01574 9.34074 5.55976 7.88477 3.76373 7.88477C1.96769 7.88477 0.511719 9.34074 0.511719 11.1368C0.511719 12.9328 1.96769 14.3888 3.76373 14.3888Z" fill="#837C6D"/>
<path d="M16.7725 6.80089C18.5686 6.80089 20.0245 5.34492 20.0245 3.54888C20.0245 1.75285 18.5686 0.296875 16.7725 0.296875C14.9765 0.296875 13.5205 1.75285 13.5205 3.54888C13.5205 5.34492 14.9765 6.80089 16.7725 6.80089Z" fill="#837C6D"/>
<path d="M16.7715 21.9767C18.5676 21.9767 20.0235 20.5207 20.0235 18.7247C20.0235 16.9286 18.5676 15.4727 16.7715 15.4727C14.9755 15.4727 13.5195 16.9286 13.5195 18.7247C13.5195 20.5207 14.9755 21.9767 16.7715 21.9767Z" fill="#837C6D"/>
<path d="M6.57129 12.7734L13.975 17.0878" stroke="#837C6D" stroke-width="1.95122" stroke-linecap="round" stroke-linejoin="round"/>
<path d="M13.9642 5.18555L6.57129 9.49988" stroke="#837C6D" stroke-width="1.95122" stroke-linecap="round" stroke-linejoin="round"/>
</svg>
